<svg xmlns="http://www.w3.org/2000/svg" viewBox="0 0 64 64">
  <rect fill="#666" width="64" height="64"/>
  <g fill="#222">
    <polygon points="0 64 43.89 64 43.89 60.93 35.81 60.24 34.94 55.29 42.3 51.87 40.2 46.1 32.36 48.22 29.85 43.87 35.6 38.14 31.65 33.43 25.01 38.1 21.16 34.87 24.6 27.52 19.29 24.45 14.65 31.1 9.93 29.39 10.64 21.31 4.6 20.24 2.51 28.09 0 28.09 0 64"/>
    <polygon points="64 0 20.11 0 20.11 3.07 28.19 3.76 29.06 8.71 21.7 12.13 23.8 17.9 31.64 15.78 34.15 20.13 28.4 25.86 32.35 30.57 38.99 25.9 42.84 29.13 39.4 36.48 44.71 39.55 49.35 32.9 54.07 34.61 53.36 42.69 59.4 43.76 61.49 35.91 64 35.91 64 0"/>
  </g>
</svg>