# Blender 4.5.1 LTS
# www.blender.org
o center
v -15.668010 9.787829 24.942530
v 7.818813 17.637030 13.842080
v -7.818813 17.637030 13.842080
v 15.668010 9.787829 24.942530
v -7.849202 1.969017 36.000000
v 7.849202 1.969017 36.000000
v 15.668010 -9.787829 24.942530
v -7.818813 -17.637030 13.842080
v 7.818813 -17.637030 13.842080
v -15.668010 -9.787829 24.942530
v 7.849202 -1.969017 36.000000
v -7.849202 -1.969017 36.000000
v -9.787829 15.668010 11.057470
v 1.969017 7.849202 0.000000
v -1.969017 7.849202 0.000000
v 9.787829 15.668010 11.057470
v -9.787829 -15.668010 11.057470
v -17.637030 -7.818813 22.157921
v -17.637030 7.818813 22.157921
v -1.969017 -7.849202 0.000000
v 1.969017 -7.849202 0.000000
v 9.787829 -15.668010 11.057470
v 17.637030 -7.818813 22.157921
v 17.637030 7.818813 22.157921
vn -0.0000 0.8165 0.5774
vn -0.0000 -0.8165 0.5774
vn -0.0000 0.8165 -0.5774
vn -0.0000 0.8165 -0.5773
vn -0.7071 -0.7071 -0.0000
vn -0.8165 -0.0000 0.5774
vn -0.0000 -0.0000 1.0000
vn -0.0000 -0.0000 -1.0000
vn 0.7071 -0.7071 -0.0000
vn -0.0000 -0.8165 -0.5774
vn -0.0000 -0.8165 -0.5773
vn -0.7071 0.7071 -0.0000
vn -0.8165 -0.0000 -0.5774
vn 0.8165 -0.0000 -0.5774
vn 0.8165 -0.0000 0.5774
vn 0.7071 0.7071 -0.0000
vt 0.432173 1.000000
vt 0.866026 0.250485
vt 0.866026 0.749515
vt 0.432173 0.000000
vt 0.000000 0.750485
vt 0.000000 0.249515
vt 0.000000 0.600585
vt 0.866026 0.899415
vt 0.691807 1.000000
vt 0.866026 0.100585
vt 0.000000 0.399415
vt 0.691807 -0.000000
vt 0.000000 0.000000
vt 0.250856 1.000000
vt 0.000000 1.000000
vt 0.250856 0.000000
vt 0.000000 0.100585
vt 0.174218 1.000000
vt 0.000000 0.899415
vt 0.866026 0.600585
vt 0.174218 -0.000000
vt 0.866026 0.399415
vt 0.000000 0.000000
vt 0.250856 1.000000
vt 0.000000 1.000000
vt 0.250856 0.000000
vt 0.000000 1.000000
vt 0.250856 0.000000
vt 0.000000 0.000000
vt -0.000000 1.000000
vt 0.250856 0.000000
vt 0.250856 1.000000
vt -0.000000 0.000000
vt 0.000000 0.749515
vt 0.866026 0.750485
vt 0.433853 1.000000
vt 0.866026 0.249515
vt 0.000000 0.250485
vt 0.433853 0.000000
s 0
f 1/1/1 2/2/1 3/3/1
f 2/2/1 1/1/1 4/4/1
f 4/4/1 1/1/1 5/5/1
f 4/4/1 5/5/1 6/6/1
f 7/1/2 8/2/2 9/3/2
f 8/2/2 7/1/2 10/4/2
f 10/4/2 7/1/2 11/5/2
f 10/4/2 11/5/2 12/6/2
f 13/7/3 14/8/3 15/9/3
f 14/8/4 13/7/4 16/10/4
f 16/10/3 13/7/3 3/11/3
f 16/10/3 3/11/3 2/12/3
f 10/13/5 17/14/5 8/15/5
f 17/14/5 10/13/5 18/16/5
f 12/17/6 18/18/6 10/19/6
f 18/18/6 12/17/6 19/20/6
f 19/20/6 12/17/6 5/21/6
f 19/20/6 5/21/6 1/22/6
f 11/23/7 5/24/7 12/25/7
f 5/24/7 11/23/7 6/26/7
f 14/27/8 20/28/8 15/24/8
f 20/28/8 14/27/8 21/29/8
f 22/30/9 7/31/9 9/32/9
f 7/31/9 22/30/9 23/33/9
f 22/7/10 20/8/10 21/9/10
f 20/8/11 22/7/11 17/10/11
f 17/10/10 22/7/10 9/11/10
f 17/10/10 9/11/10 8/12/10
f 1/31/12 13/30/12 19/33/12
f 13/30/12 1/31/12 3/32/12
f 18/34/13 20/35/13 17/36/13
f 20/35/13 18/34/13 15/37/13
f 15/37/13 18/34/13 19/38/13
f 15/37/13 19/38/13 13/39/13
f 21/37/14 23/38/14 22/39/14
f 23/38/14 21/37/14 14/35/14
f 23/38/14 14/35/14 24/34/14
f 24/34/14 14/35/14 16/36/14
f 23/20/15 11/21/15 7/22/15
f 11/21/15 23/20/15 24/18/15
f 11/21/15 24/18/15 6/17/15
f 6/17/15 24/18/15 4/19/15
f 16/14/16 4/13/16 24/16/16
f 4/13/16 16/14/16 2/15/16
