# Blender 4.5.1 LTS
# www.blender.org
o large-gear
v -16.184635 -1.192353 0.000000
v -20.056690 -2.032740 2.936826
v -20.073408 -1.478627 2.913185
v -16.145805 -1.636194 0.000000
v -14.920519 -0.565220 0.000000
v -19.500694 -0.737717 3.723123
v -19.438980 -2.674413 3.810401
v -14.791992 -2.034288 0.000000
v -13.837826 -0.101647 0.000000
v -18.958580 -0.137296 4.489790
v -12.919868 0.232007 0.000000
v -18.455963 0.334416 5.200598
v -12.151961 0.463419 0.000000
v -18.001135 0.690491 5.843821
v -11.521573 0.615514 0.000000
v -17.601646 0.945263 6.408783
v -11.352417 0.606340 0.000000
v -17.521839 0.940934 6.521647
v -11.309430 1.377124 0.000000
v -17.493641 2.125019 6.561526
v -11.453417 1.394537 0.000000
v -17.557402 2.132730 6.471355
v -12.047818 1.653787 0.000000
v -17.937241 2.458111 5.934182
v -12.763874 2.015030 0.000000
v -18.366587 2.896422 5.326995
v -13.609948 2.503016 0.000000
v -18.838005 3.462438 4.660307
v -14.595693 3.147554 0.000000
v -19.343637 4.170352 3.945236
v -15.731705 3.984671 0.000000
v -19.875271 5.033944 3.193394
v -19.823591 5.604730 3.266477
v -15.616392 4.415026 0.000000
v -14.214018 4.571985 0.000000
v -19.153072 6.161847 4.214736
v -13.038069 4.637298 0.000000
v -18.523424 6.590667 5.105192
v -12.061354 4.636870 0.000000
v -17.945635 6.902679 5.922311
v -11.260610 4.591687 0.000000
v -17.429277 7.111984 6.652550
v -10.616219 4.519004 0.000000
v -16.982288 7.234935 7.284687
v -10.460402 4.452529 0.000000
v -16.904320 7.201671 7.394953
v -16.682768 8.472525 7.708275
v -10.156384 5.162126 0.000000
v -10.285732 5.227735 0.000000
v -16.743923 8.503546 7.621787
v -10.755617 5.674648 0.000000
v -17.084076 9.007996 7.140739
v -11.304938 6.259011 0.000000
v -17.461250 9.663121 6.607332
v -11.933085 7.006942 0.000000
v -17.867678 10.488590 6.032558
v -12.638938 7.949754 0.000000
v -18.295540 11.505957 5.427471
v -13.420129 9.124926 0.000000
v -18.736919 12.739605 4.803264
v -18.596039 13.405701 5.002501
v -13.164581 9.489888 0.000000
v -11.793097 9.157741 0.000000
v -17.779282 13.808330 6.157568
v -10.665728 8.816917 0.000000
v -17.020294 14.074084 7.230938
v -9.748062 8.482459 0.000000
v -16.333193 14.218895 8.202649
v -9.011062 8.166130 0.000000
v -15.729170 14.262690 9.056865
v -8.430392 7.877436 0.000000
v -15.216197 14.228447 9.782318
v -8.306708 7.761677 0.000000
v -15.143846 14.160731 9.884638
v -14.646787 15.663177 10.587586
v -7.778328 8.324499 0.000000
v -7.877436 8.430392 0.000000
v -14.701249 15.721367 10.510565
v -8.166130 9.011062 0.000000
v -14.977886 16.517281 10.119340
v -8.482459 9.748062 0.000000
v -15.270205 17.540041 9.705939
v -8.816917 10.665728 0.000000
v -15.567662 18.825649 9.285271
v -9.157741 11.793097 0.000000
v -15.859189 20.419127 8.872990
v -9.489888 13.164581 0.000000
v -16.132666 22.378494 8.486235
v -15.831611 23.284918 8.911991
v -9.124926 13.420129 0.000000
v -7.949754 12.638938 0.000000
v -14.771458 23.489740 10.411273
v -7.006942 11.933085 0.000000
v -13.804758 23.520205 11.778395
v -6.259011 11.304938 0.000000
v -12.603607 22.779102 12.314776
v -13.560487 23.487452 12.123846
v 7.946047 -15.644826 6.521647
v 8.402585 -15.934686 5.843821
v 8.938368 -16.150541 5.200598
v 7.982202 -15.716105 6.408783
v 24.287420 -6.151230 6.593783
v 22.220852 -7.149353 6.832622
v 23.732695 -6.710139 6.301512
v 24.100014 -5.194967 7.897478
v 20.946903 -7.453683 7.360712
v 19.883907 -7.649033 7.873111
v 19.010246 -7.757912 8.357533
v 23.818008 -4.376338 9.099497
v 18.308092 -7.800557 8.801802
v 18.222235 -7.763928 8.907375
v -4.487267 -20.753204 9.056865
v -4.714098 -20.291836 9.782318
v 23.467596 -3.698889 10.176979
v -4.691630 -20.195320 9.884638
v -6.241316 -20.516079 10.587586
v 23.077053 -3.160061 11.113060
v 0.000000 0.000000 31.301270
v 26.029085 -0.474508 12.314776
v 27.120974 0.000000 12.123846
v 24.776978 -0.953536 12.613462
v 23.660414 -1.273855 13.010684
v 23.778370 -1.280253 12.919440
v -9.753887 -23.944023 8.872990
v -12.249525 -25.353037 8.911991
v -11.314013 -25.160545 8.486235
v -8.519659 -22.894815 9.285271
v -12.956983 -24.537329 10.411273
v -7.555018 -21.994406 9.705939
v -6.815442 -21.229872 10.119340
v -6.264479 -20.592339 10.510565
v -13.466716 -23.715372 11.778395
v 22.675323 -2.751672 11.897300
v -13.560487 -23.487452 12.123846
v 22.590754 -2.741444 11.969626
v 17.773518 -12.084625 3.932913
v 16.164295 -12.553668 4.496346
v 17.294151 -12.467106 3.803434
v 17.821527 -11.207955 4.972661
v 15.200306 -12.568397 5.159951
v 17.781076 -10.437784 5.944528
v 14.390837 -12.526872 5.783190
v 13.725185 -12.444110 6.355239
v 17.669630 -9.778344 6.830978
v 13.192884 -12.334776 6.865539
v 17.506468 -9.230479 7.617346
v 13.132704 -12.278452 6.977076
v 2.225507 -18.324560 7.284687
v 2.215329 -18.240404 7.394953
v 1.003961 -18.683964 7.708275
v 17.312016 -8.791701 8.292235
v -4.147328 -21.254406 8.202649
v 17.248558 -8.759514 8.376528
v -0.816682 -21.597380 5.427471
v -2.311658 -22.807491 5.002501
v -1.664361 -22.596451 4.803264
v -3.068723 -22.301476 6.157568
v -0.149546 -20.718159 6.032558
v 0.362117 -19.953447 6.607332
v -3.678366 -21.777050 7.230938
v 0.740885 -19.299240 7.140739
v 1.007675 -18.752436 7.621787
v 11.788750 -16.353233 2.936826
v 10.389229 -16.519239 3.723123
v 11.317232 -16.644768 2.913185
v 12.035599 -15.497444 3.810401
v 9.598192 -16.349962 4.489790
v 12.186024 -14.738115 4.634018
v 12.254541 -14.078216 5.393779
v 12.256905 -13.518894 6.077133
v 12.209862 -13.059419 6.673138
v 6.906500 -16.212446 6.561526
v 2.555480 -18.650188 6.652550
v 12.165451 -13.011967 6.762658
v 6.060188 -18.837257 3.945236
v 5.057957 -19.970098 3.266477
v 5.578112 -19.729462 3.193394
v 4.240220 -19.667971 4.214736
v 6.420444 -18.045410 4.660307
v 3.554027 -19.337090 5.105192
v 6.674918 -17.354141 5.326995
v 2.994922 -18.992714 5.922311
v 6.839833 -16.763161 5.934182
v 6.931703 -16.271521 6.471355
v -6.830884 -12.034733 0.000000
v -13.425479 -22.304596 12.314776
v -6.660858 -11.072931 0.000000
v -13.214276 -20.980724 12.613462
v -6.477314 -10.292198 0.000000
v -12.997917 -19.952545 12.919440
v -6.293838 -9.670218 0.000000
v -12.933398 -19.853592 13.010684
v -6.201315 -9.528312 0.000000
v -6.847339 -9.105692 0.000000
v -13.669537 -18.193443 11.969626
v -6.934413 -9.221682 0.000000
v -13.720679 -18.261570 11.897300
v -7.456130 -9.606823 0.000000
v -14.275221 -18.405285 11.113060
v -8.127004 -10.046324 0.000000
v -14.937130 -18.474091 10.176979
v -8.972650 -10.535052 0.000000
v -15.699024 -18.438831 9.099497
v -10.023708 -11.066464 0.000000
v -16.548981 -18.273741 7.897478
v -11.316679 -11.631721 0.000000
v -17.470833 -17.957909 6.593783
v -11.631721 -11.316679 0.000000
v -17.677500 -17.198048 6.301512
v -17.301947 -15.669145 6.832622
v -11.066464 -10.023708 0.000000
v -16.928532 -14.413709 7.360712
v -10.535052 -8.972650 0.000000
v -16.566210 -13.395452 7.873111
v -10.046324 -8.127004 0.000000
v -16.223673 -12.584401 8.357533
v -9.606823 -7.456130 0.000000
v -15.909527 -11.954994 8.801802
v -9.221682 -6.934413 0.000000
v -9.086204 -6.832710 0.000000
v -15.834875 -11.898953 8.907375
v -9.548724 -6.214623 0.000000
v -16.210241 -10.557933 8.376528
v -9.670218 -6.293838 0.000000
v -16.269844 -10.596795 8.292235
v -10.292198 -6.477314 0.000000
v -16.747063 -10.545806 7.617346
v -11.072931 -6.660858 0.000000
v -17.303108 -10.413177 6.830978
v -12.034733 -6.830884 0.000000
v -17.929924 -10.179973 5.944528
v -13.204158 -6.970765 0.000000
v -18.617138 -9.829919 4.972661
v -14.612483 -7.059710 0.000000
v -19.352350 -9.350005 3.932913
v -14.800774 -6.655917 0.000000
v -19.443907 -8.743623 3.803434
v -18.953943 -7.721857 4.496346
v -13.827385 -5.634251 0.000000
v -12.968538 -4.828333 0.000000
v -18.484703 -6.879653 5.159951
v -12.220056 -4.200840 0.000000
v -18.044008 -6.199395 5.783190
v -11.577607 -3.720744 0.000000
v -17.639507 -5.664304 6.355239
v -11.037255 -3.362216 0.000000
v -17.278671 -5.257985 6.865539
v -10.875164 -3.312982 0.000000
v -17.199802 -5.234029 6.977076
v -17.351419 -4.029606 6.762658
v -11.098392 -2.573980 0.000000
v -11.239651 -2.606863 0.000000
v -17.414719 -4.044341 6.673138
v -11.886874 -2.566545 0.000000
v -17.836159 -3.855344 6.077133
v -12.683299 -2.471993 0.000000
v -18.319363 -3.573636 5.393779
v -13.645250 -2.302810 0.000000
v -18.856594 -3.184349 4.634018
v -6.970765 -13.204158 0.000000
v -7.059710 -14.612483 0.000000
v -6.655917 -14.800774 0.000000
v -5.634251 -13.827385 0.000000
v -4.828333 -12.968538 0.000000
v -4.200840 -12.220056 0.000000
v -3.720744 -11.577607 0.000000
v -3.362216 -11.037255 0.000000
v -3.320064 -10.898479 0.000000
v -2.568455 -11.074659 0.000000
v -2.606863 -11.239651 0.000000
v -2.566545 -11.886874 0.000000
v -2.471993 -12.683299 0.000000
v -2.302810 -13.645250 0.000000
v -2.034288 -14.791992 0.000000
v -1.636194 -16.145805 0.000000
v -1.192353 -16.184635 0.000000
v -0.565220 -14.920519 0.000000
v -0.101647 -13.837826 0.000000
v 0.232007 -12.919868 0.000000
v 0.463419 -12.151961 0.000000
v 0.615514 -11.521573 0.000000
v 0.607660 -11.376749 0.000000
v 1.374198 -11.285239 0.000000
v 1.394537 -11.453417 0.000000
v 1.653787 -12.047818 0.000000
v 2.015030 -12.763874 0.000000
v 2.503016 -13.609948 0.000000
v 3.147554 -14.595693 0.000000
v 3.984671 -15.731705 0.000000
v 4.415026 -15.616392 0.000000
v 4.571985 -14.214018 0.000000
v 4.637298 -13.038069 0.000000
v 4.636870 -12.061354 0.000000
v 4.591687 -11.260610 0.000000
v 4.519004 -10.616219 0.000000
v 4.462091 -10.482815 0.000000
v 5.151103 -10.134652 0.000000
v 5.227735 -10.285732 0.000000
v 5.674648 -10.755617 0.000000
v 6.259011 -11.304938 0.000000
v 7.006942 -11.933085 0.000000
v 7.949754 -12.638938 0.000000
v 9.124926 -13.420129 0.000000
v 9.489888 -13.164581 0.000000
v 9.157741 -11.793097 0.000000
v 8.816917 -10.665728 0.000000
v 8.482459 -9.748062 0.000000
v 8.166130 -9.011062 0.000000
v 7.877436 -8.430392 0.000000
v 7.778328 -8.324499 0.000000
v 8.306708 -7.761677 0.000000
v 8.430392 -7.877436 0.000000
v 9.011062 -8.166130 0.000000
v 9.748062 -8.482459 0.000000
v 10.665728 -8.816917 0.000000
v 11.793097 -9.157741 0.000000
v 13.164581 -9.489888 0.000000
v 13.420129 -9.124926 0.000000
v 12.638938 -7.949754 0.000000
v 11.933085 -7.006942 0.000000
v 11.304938 -6.259011 0.000000
v 10.755617 -5.674648 0.000000
v 10.285732 -5.227735 0.000000
v 10.156384 -5.162126 0.000000
v 10.460402 -4.452529 0.000000
v 10.616219 -4.519004 0.000000
v 11.260610 -4.591687 0.000000
v 12.061354 -4.636870 0.000000
v 13.038069 -4.637298 0.000000
v 14.214018 -4.571985 0.000000
v 15.616392 -4.415026 0.000000
v 15.731705 -3.984671 0.000000
v 14.595693 -3.147554 0.000000
v 13.609948 -2.503016 0.000000
v 12.763874 -2.015030 0.000000
v 12.047818 -1.653787 0.000000
v 11.453417 -1.394537 0.000000
v 11.309430 -1.377124 0.000000
v 11.352417 -0.606340 0.000000
v 11.521573 -0.615514 0.000000
v 12.151961 -0.463419 0.000000
v 12.919868 -0.232007 0.000000
v 27.271475 0.195168 11.778395
v 13.837826 0.101647 0.000000
v 27.728441 1.047588 10.411273
v 14.920519 0.565220 0.000000
v 28.081137 2.068119 8.911991
v 16.184635 1.192353 0.000000
v 27.446678 2.782051 8.486235
v 16.145805 1.636194 0.000000
v 25.613075 3.524898 8.872990
v 14.791992 2.034288 0.000000
v 24.087320 4.069166 9.285271
v 13.645250 2.302810 0.000000
v 22.825224 4.454365 9.705939
v 12.683299 2.471993 0.000000
v 21.793327 4.712590 10.119340
v 11.886874 2.566545 0.000000
v 20.965729 4.870971 10.510565
v 11.239651 2.606863 0.000000
v 20.888102 4.852901 10.587586
v 11.098392 2.573980 0.000000
v 10.875164 3.312982 0.000000
v 19.835476 6.034589 9.884638
v 19.930296 6.063390 9.782318
v 11.037255 3.362216 0.000000
v 20.216436 6.490516 9.056865
v 11.577607 3.720744 0.000000
v 20.480520 7.035511 8.202649
v 12.220056 4.200840 0.000000
v 20.698662 7.702966 7.230938
v 12.968538 4.828333 0.000000
v 20.848005 8.493145 6.157568
v 13.827385 5.634251 0.000000
v 14.800774 6.655917 0.000000
v 20.907696 9.401791 5.002501
v 20.401281 9.856846 4.803264
v 14.612483 7.059710 0.000000
v 19.112221 10.091423 5.427471
v 13.204158 6.970765 0.000000
v 18.017223 10.229568 6.032558
v 12.034733 6.830884 0.000000
v 17.099134 10.290327 6.607332
v 11.072931 6.660858 0.000000
v 16.343191 10.291245 7.140739
v 10.292198 6.477314 0.000000
v 15.736248 10.248890 7.621787
v 9.670218 6.293838 0.000000
v 15.678806 10.211437 7.708275
v 9.548724 6.214623 0.000000
v 14.688989 11.038734 7.394953
v 9.086204 6.832710 0.000000
v 14.756782 11.089626 7.284687
v 9.221682 6.934413 0.000000
v 9.606823 7.456130 0.000000
v 14.873798 11.538205 6.652550
v 10.046324 8.127004 0.000000
v 14.950712 12.090035 5.922311
v 10.535052 8.972650 0.000000
v 14.969398 12.746422 5.105192
v 11.066464 10.023708 0.000000
v 14.912852 13.506123 4.214736
v 11.631721 11.316679 0.000000
v 14.765635 14.365369 3.266477
v 14.297158 14.695517 3.193394
v 11.316679 11.631721 0.000000
v 13.283450 14.666905 3.945236
v 10.023708 11.066464 0.000000
v 12.417562 14.582973 4.660307
v 8.972650 10.535052 0.000000
v 11.691668 14.457719 5.326995
v 8.127004 10.046324 0.000000
v 11.097407 14.305050 5.934182
v 7.456130 9.606823 0.000000
v 10.625699 14.138791 6.471355
v 6.934413 9.221682 0.000000
v 10.587141 14.087428 6.561526
v 6.847339 9.105692 0.000000
v 9.575793 14.703891 6.521647
v 6.201315 9.528312 0.000000
v 6.293838 9.670218 0.000000
v 9.619445 14.770842 6.408783
v 6.477314 10.292198 0.000000
v 9.598550 15.244195 5.843821
v 6.660858 11.072931 0.000000
v 9.517594 15.816124 5.200598
v 6.830884 12.034733 0.000000
v 9.360388 16.487261 4.489790
v 6.970765 13.204158 0.000000
v 9.111466 17.256956 3.723123
v 7.059710 14.612483 0.000000
v 8.756176 18.123396 2.913185
v 8.267941 18.385975 2.936826
v 6.655917 14.800774 0.000000
v 7.403380 18.171858 3.810401
v 5.634251 13.827385 0.000000
v 6.670570 17.922464 4.634018
v 4.828333 12.968538 0.000000
v 6.064822 17.651852 5.393779
v 4.200840 12.220056 0.000000
v 5.579253 17.374239 6.077133
v 3.720744 11.577607 0.000000
v 5.204857 17.103760 6.673138
v 3.362216 11.037255 0.000000
v 5.185969 17.041573 6.762658
v 3.320064 10.898479 0.000000
v 4.067099 17.512482 6.977076
v 2.568455 11.074659 0.000000
v 2.606863 11.239651 0.000000
v 4.085787 17.592760 6.865539
v 2.566545 11.886874 0.000000
v 3.914323 18.108414 6.355239
v 2.471993 12.683299 0.000000
v 3.653170 18.726267 5.783190
v 2.302810 13.645250 0.000000
v 3.284398 19.448050 5.159951
v 2.034288 14.791992 0.000000
v 2.789648 20.275524 4.496346
v 1.636194 16.145805 0.000000
v 2.149754 21.210728 3.803434
v 1.578834 21.434629 3.932913
v 1.192353 16.184635 0.000000
v 0.795610 21.037874 4.972661
v 0.565220 14.920519 0.000000
v 0.148847 20.617756 5.944528
v 0.101647 13.837826 0.000000
v -0.366521 20.191521 6.830978
v -0.232007 12.919868 0.000000
v -0.759404 19.776285 7.617346
v -0.463419 12.151961 0.000000
v -1.042171 19.388496 8.292235
v -0.615514 11.521573 0.000000
v -1.038318 19.317448 8.376528
v -0.607660 11.376749 0.000000
v -2.387358 19.662882 8.907375
v -1.374198 11.285239 0.000000
v -1.394537 11.453417 0.000000
v -2.398566 19.755552 8.801802
v -1.653787 12.047818 0.000000
v -2.786575 20.342312 8.357533
v -2.015030 12.763874 0.000000
v -3.317697 21.044485 7.873111
v -2.503016 13.609948 0.000000
v -4.018373 21.867393 7.360712
v -3.147554 14.595693 0.000000
v -4.918904 22.818499 6.832622
v -3.984671 15.731705 0.000000
v -6.055197 23.908188 6.301512
v -4.415026 15.616392 0.000000
v -6.816589 24.109138 6.593783
v -7.551033 23.468706 7.897478
v -4.571985 14.214018 0.000000
v -8.118984 22.815170 9.099497
v -4.637298 13.038069 0.000000
v -8.530466 22.172979 10.176979
v -4.636870 12.061354 0.000000
v -8.801834 21.565346 11.113060
v -4.591687 11.260610 0.000000
v -8.954644 21.013241 11.897300
v -4.519004 10.616219 0.000000
v -8.921216 20.934889 11.969626
v -4.462091 10.482815 0.000000
v -5.151103 10.134652 0.000000
v -10.727016 21.127447 13.010684
v -5.227735 10.285732 0.000000
v -10.780454 21.232800 12.919440
v -5.674648 10.755617 0.000000
v -11.562702 21.934259 12.613462
vn -0.5963 -0.0522 -0.8011
vn -0.3967 0.7996 -0.4509
vn -0.2518 -0.8563 -0.4509
vn -0.3601 0.8409 -0.4040
vn -0.3191 0.8779 -0.3570
vn -0.2743 0.9103 -0.3100
vn -0.2263 0.9379 -0.2629
vn 0.0542 0.9985 -0.0000
vn -0.7248 0.0404 -0.6877
vn -0.1201 -0.9928 -0.0000
vn -0.3857 -0.8844 -0.2629
vn -0.4282 -0.8488 -0.3100
vn -0.4667 -0.8092 -0.3570
vn -0.5006 -0.7656 -0.4040
vn -0.5295 -0.7185 -0.4509
vn -0.5782 0.1549 -0.8011
vn -0.0993 0.8870 -0.4509
vn -0.0507 0.9134 -0.4040
vn 0.0004 0.9341 -0.3570
vn 0.0536 0.9492 -0.3100
vn 0.1081 0.9587 -0.2629
vn 0.3924 0.9198 -0.0000
vn -0.6673 0.2859 -0.6877
vn -0.6673 0.2859 -0.6878
vn -0.4524 -0.8918 -0.0000
vn -0.6649 -0.6991 -0.2629
vn -0.6927 -0.6512 -0.3099
vn -0.6927 -0.6512 -0.3100
vn -0.7153 -0.6008 -0.3570
vn -0.7153 -0.6007 -0.3570
vn -0.7323 -0.5482 -0.4040
vn -0.7433 -0.4941 -0.4509
vn -0.4903 0.3433 -0.8011
vn 0.2101 0.8675 -0.4509
vn 0.2647 0.8756 -0.4040
vn 0.3199 0.8776 -0.3570
vn 0.3750 0.8737 -0.3099
vn 0.3750 0.8737 -0.3100
vn 0.4295 0.8639 -0.2629
vn 0.6833 0.7301 -0.0000
vn -0.5293 0.4969 -0.6877
vn -0.7301 -0.6833 -0.0000
vn -0.8639 -0.4295 -0.2629
vn -0.8737 -0.3750 -0.3099
vn -0.8737 -0.3750 -0.3100
vn -0.8776 -0.3199 -0.3570
vn -0.8756 -0.2647 -0.4040
vn -0.8675 -0.2101 -0.4509
vn -0.3433 0.4903 -0.8011
vn 0.4941 0.7433 -0.4509
vn 0.5482 0.7323 -0.4040
vn 0.6008 0.7153 -0.3570
vn 0.4082 -0.7071 0.5773
vn 0.4083 -0.7071 0.5774
vn 0.4082 -0.7071 0.5774
vn 0.4083 -0.7071 0.5773
vn -0.9199 0.1626 -0.3570
vn -0.9255 0.2176 -0.3100
vn -0.9254 0.2730 -0.2629
vn -0.8377 0.5462 -0.0000
vn -0.3974 -0.6075 -0.6877
vn 0.7997 -0.6004 -0.0000
vn 0.5730 -0.7762 -0.2629
vn 0.5210 -0.7953 -0.3100
vn 0.4674 -0.8088 -0.3570
vn 0.4127 -0.8164 -0.4040
vn 0.3575 -0.8178 -0.4509
vn -0.4232 -0.4232 -0.8011
vn -0.8178 0.3575 -0.4509
vn -0.8164 0.4127 -0.4040
vn -0.8088 0.4674 -0.3570
vn -0.7953 0.5210 -0.3100
vn -0.7762 0.5730 -0.2629
vn -0.6004 0.7997 -0.0000
vn -0.5812 -0.4349 -0.6877
vn 0.5462 -0.8377 -0.0000
vn 0.2730 -0.9254 -0.2629
vn 0.2176 -0.9255 -0.3100
vn 0.1626 -0.9199 -0.3570
vn 0.1086 -0.9083 -0.4040
vn 0.0563 -0.8908 -0.4509
vn -0.5425 -0.2530 -0.8011
vn -0.6462 0.6157 -0.4509
vn -0.6260 0.6671 -0.4040
vn -0.6001 0.7158 -0.3570
vn -0.5691 0.7616 -0.3100
vn -0.5334 0.8039 -0.2629
vn -0.2906 0.9568 -0.0000
vn -0.6949 -0.2099 -0.6877
vn 0.2267 -0.9740 -0.0000
vn -0.0600 -0.9629 -0.2629
vn -0.1121 -0.9441 -0.3100
vn -0.1618 -0.9200 -0.3570
vn -0.2086 -0.8907 -0.4040
vn -0.9083 0.1086 -0.4040
vn -0.8908 0.0563 -0.4509
vn -0.2530 -0.5425 -0.8011
vn 0.6157 -0.6462 -0.4509
vn 0.6671 -0.6260 -0.4040
vn 0.7158 -0.6001 -0.3570
vn 0.7616 -0.5691 -0.3100
vn 0.8039 -0.5334 -0.2629
vn 0.9568 -0.2906 -0.0000
vn -0.1657 -0.7068 -0.6877
vn -0.9740 0.2267 -0.0000
vn -0.9629 -0.0600 -0.2629
vn -0.9441 -0.1121 -0.3100
vn -0.9200 -0.1618 -0.3570
vn -0.8907 -0.2086 -0.4040
vn -0.8563 -0.2518 -0.4509
vn -0.0522 -0.5963 -0.8011
vn 0.7996 -0.3967 -0.4509
vn 0.8409 -0.3601 -0.4040
vn 0.8779 -0.3191 -0.3570
vn 0.9103 -0.2743 -0.3100
vn 0.9379 -0.2263 -0.2629
vn 0.9985 0.0542 -0.0000
vn 0.0861 -0.7208 -0.6877
vn -0.9928 -0.1201 -0.0000
vn -0.8844 -0.3857 -0.2629
vn -0.8488 -0.4282 -0.3100
vn -0.8092 -0.4667 -0.3570
vn -0.7656 -0.5006 -0.4040
vn -0.7185 -0.5295 -0.4509
vn 0.1549 -0.5782 -0.8011
vn 0.8870 -0.0993 -0.4509
vn 0.9134 -0.0507 -0.4040
vn 0.9341 0.0004 -0.3570
vn 0.9492 0.0536 -0.3100
vn 0.9587 0.1081 -0.2629
vn 0.9198 0.3924 -0.0000
vn 0.3274 -0.6479 -0.6877
vn -0.8918 -0.4524 -0.0000
vn -0.6991 -0.6649 -0.2629
vn -0.6512 -0.6927 -0.3100
vn -0.6008 -0.7153 -0.3570
vn -0.6007 -0.7153 -0.3570
vn -0.5482 -0.7323 -0.4040
vn -0.4941 -0.7433 -0.4509
vn 0.3433 -0.4903 -0.8011
vn 0.8675 0.2101 -0.4509
vn 0.8756 0.2647 -0.4040
vn 0.8776 0.3199 -0.3570
vn 0.8737 0.3750 -0.3100
vn 0.8639 0.4295 -0.2629
vn 0.7301 0.6833 -0.0000
vn 0.5293 -0.4969 -0.6877
vn 0.5293 -0.4969 -0.6878
vn -0.6833 -0.7301 -0.0000
vn -0.4295 -0.8639 -0.2629
vn -0.3750 -0.8737 -0.3099
vn -0.3750 -0.8737 -0.3100
vn -0.3199 -0.8776 -0.3570
vn -0.2647 -0.8756 -0.4040
vn -0.2101 -0.8675 -0.4509
vn 0.4903 -0.3433 -0.8011
vn 0.7433 0.4941 -0.4509
vn 0.7323 0.5482 -0.4040
vn 0.7153 0.6008 -0.3570
vn 0.7153 0.6007 -0.3570
vn 0.6927 0.6512 -0.3100
vn 0.6649 0.6991 -0.2629
vn 0.4524 0.8918 -0.0000
vn 0.6673 -0.2859 -0.6877
vn -0.3924 -0.9198 -0.0000
vn -0.1081 -0.9587 -0.2629
vn -0.0536 -0.9492 -0.3100
vn -0.0004 -0.9341 -0.3570
vn 0.0507 -0.9134 -0.4040
vn 0.0993 -0.8870 -0.4509
vn 0.5782 -0.1549 -0.8011
vn 0.5295 0.7185 -0.4509
vn 0.5006 0.7656 -0.4040
vn 0.4667 0.8092 -0.3570
vn 0.4282 0.8488 -0.3100
vn 0.3857 0.8844 -0.2629
vn 0.1201 0.9928 -0.0000
vn 0.7248 -0.0404 -0.6877
vn -0.0542 -0.9985 -0.0000
vn 0.2263 -0.9379 -0.2629
vn 0.2743 -0.9103 -0.3100
vn 0.3191 -0.8779 -0.3570
vn 0.3601 -0.8409 -0.4040
vn 0.3967 -0.7996 -0.4509
vn 0.5963 0.0522 -0.8011
vn 0.2518 0.8563 -0.4509
vn 0.2086 0.8907 -0.4040
vn 0.1618 0.9200 -0.3570
vn 0.1121 0.9441 -0.3100
vn 0.0600 0.9629 -0.2629
vn -0.2267 0.9740 -0.0000
vn 0.6949 0.2099 -0.6877
vn 0.2906 -0.9568 -0.0000
vn 0.5334 -0.8039 -0.2629
vn 0.5691 -0.7616 -0.3100
vn 0.6001 -0.7158 -0.3570
vn 0.6260 -0.6671 -0.4040
vn 0.6462 -0.6157 -0.4509
vn 0.5425 0.2530 -0.8011
vn -0.0563 0.8908 -0.4509
vn -0.1086 0.9083 -0.4040
vn -0.1626 0.9199 -0.3570
vn -0.2176 0.9255 -0.3100
vn -0.2730 0.9254 -0.2629
vn -0.5462 0.8377 -0.0000
vn 0.5812 0.4349 -0.6877
vn 0.6004 -0.7997 -0.0000
vn 0.7762 -0.5730 -0.2629
vn 0.7953 -0.5210 -0.3100
vn 0.8088 -0.4674 -0.3570
vn 0.8164 -0.4127 -0.4040
vn 0.8178 -0.3575 -0.4509
vn 0.4232 0.4232 -0.8011
vn -0.3575 0.8178 -0.4509
vn -0.4127 0.8164 -0.4040
vn -0.4674 0.8088 -0.3570
vn -0.5210 0.7953 -0.3100
vn -0.5730 0.7762 -0.2629
vn -0.7997 0.6004 -0.0000
vn 0.3974 0.6075 -0.6878
vn 0.3974 0.6075 -0.6877
vn 0.8377 -0.5462 -0.0000
vn 0.9254 -0.2730 -0.2629
vn 0.9255 -0.2176 -0.3100
vn 0.9199 -0.1626 -0.3570
vn 0.9083 -0.1086 -0.4040
vn 0.8908 -0.0563 -0.4509
vn 0.2530 0.5425 -0.8011
vn -0.6157 0.6462 -0.4509
vn -0.6671 0.6260 -0.4040
vn -0.7158 0.6001 -0.3570
vn -0.7616 0.5691 -0.3100
vn -0.8039 0.5334 -0.2629
vn -0.9568 0.2906 -0.0000
vn 0.1657 0.7068 -0.6877
vn 0.9740 -0.2267 -0.0000
vn 0.9629 0.0600 -0.2629
vn 0.9441 0.1121 -0.3100
vn 0.9200 0.1618 -0.3570
vn 0.8907 0.2086 -0.4040
vn 0.8563 0.2518 -0.4509
vn 0.0522 0.5963 -0.8011
vn -0.7996 0.3967 -0.4509
vn -0.8409 0.3601 -0.4040
vn -0.8779 0.3191 -0.3570
vn -0.9103 0.2743 -0.3100
vn -0.9379 0.2263 -0.2629
vn -0.9985 -0.0542 -0.0000
vn -0.0861 0.7208 -0.6877
vn 0.9928 0.1201 -0.0000
vn 0.8844 0.3857 -0.2629
vn 0.8488 0.4282 -0.3100
vn 0.8092 0.4667 -0.3570
vn 0.7656 0.5006 -0.4040
vn 0.7185 0.5295 -0.4509
vn -0.1549 0.5782 -0.8011
vn -0.8870 0.0993 -0.4509
vn -0.9134 0.0507 -0.4040
vn -0.9341 -0.0004 -0.3570
vn -0.9492 -0.0536 -0.3100
vn -0.9587 -0.1081 -0.2629
vn -0.9198 -0.3924 -0.0000
vn -0.3274 0.6479 -0.6877
vn 0.8918 0.4524 -0.0000
vn 0.6991 0.6649 -0.2629
vn 0.6512 0.6927 -0.3100
vn 0.4082 0.7071 0.5774
vn 0.4082 0.7071 0.5773
vn 0.4083 0.7071 0.5773
vn -0.8165 -0.0000 0.5773
vn -0.8165 -0.0000 0.5774
vn -0.8165 -0.0001 0.5774
vn -0.0000 -0.0000 -1.0000
vt 0.155121 0.726535
vt 0.128570 0.637443
vt 0.134589 0.638285
vt 0.150414 0.726434
vt 0.177168 0.741581
vt 0.157725 0.633434
vt 0.788951 0.823518
vt 0.792141 0.912173
vt 0.773233 0.921807
vt 0.808854 0.834075
vt 0.195195 0.754377
vt 0.178452 0.628720
vt 0.209789 0.765155
vt 0.196681 0.624245
vt 0.221443 0.774113
vt 0.212354 0.620110
vt 0.230570 0.781420
vt 0.225446 0.616407
vt 0.232438 0.783320
vt 0.227419 0.615600
vt 0.241901 0.784744
vt 0.241901 0.616758
vt 0.000000 0.804811
vt 0.002002 0.933505
vt 0.000000 0.934824
vt 0.002068 0.805235
vt 0.010257 0.930125
vt 0.014374 0.810842
vt 0.020199 0.926594
vt 0.028282 0.817958
vt 0.031945 0.923097
vt 0.043549 0.826707
vt 0.045625 0.919860
vt 0.059919 0.837203
vt 0.061388 0.917171
vt 0.077126 0.849555
vt 0.816736 0.584077
vt 0.828461 0.676950
vt 0.808854 0.585097
vt 0.835018 0.677802
vt 0.855464 0.690918
vt 0.839012 0.574564
vt 0.871835 0.701953
vt 0.858829 0.565681
vt 0.884794 0.711148
vt 0.876062 0.557575
vt 0.894895 0.718711
vt 0.890650 0.550368
vt 0.902599 0.724817
vt 0.902599 0.544161
vt 0.385476 0.357003
vt 0.387995 0.500969
vt 0.385740 0.499743
vt 0.387995 0.356214
vt 0.126523 0.375570
vt 0.114108 0.563179
vt 0.106642 0.380116
vt 0.126523 0.565153
vt 0.391675 0.816293
vt 0.393520 0.934409
vt 0.391675 0.934887
vt 0.393592 0.817127
vt 0.400011 0.934964
vt 0.403917 0.825413
vt 0.407538 0.936294
vt 0.415270 0.835654
vt 0.416064 0.938690
vt 0.427383 0.848002
vt 0.425541 0.942508
vt 0.439985 0.862632
vt 0.435898 0.948181
vt 0.452800 0.879748
vt 0.087861 0.818998
vt 0.086543 0.953060
vt 0.077126 0.822591
vt 0.094409 0.954346
vt 0.110216 0.965648
vt 0.110216 0.804811
vt 0.826122 0.352821
vt 0.864417 0.515897
vt 0.849829 0.508353
vt 0.845313 0.337770
vt 0.876837 0.522849
vt 0.863602 0.325508
vt 0.887267 0.529112
vt 0.880478 0.315918
vt 0.895863 0.534609
vt 0.895493 0.308791
vt 0.898212 0.536552
vt 0.898212 0.308681
vt 1.000000 0.724817
vt 0.985636 0.976102
vt 0.974090 0.740237
vt 1.000000 0.976829
vt 0.126523 0.375570
vt 0.127754 0.493815
vt 0.126523 0.493199
vt 0.127820 0.377075
vt 0.898212 0.286323
vt 0.900187 0.532825
vt 0.898212 0.536552
vt 0.901842 0.288785
vt 0.903465 0.528363
vt 0.907687 0.290706
vt 0.908461 0.523126
vt 0.916343 0.291743
vt 0.915679 0.517069
vt 0.928515 0.291509
vt 0.925731 0.510143
vt 0.945071 0.289548
vt 0.960725 0.280222
vt 0.934179 0.511145
vt 0.266160 0.038429
vt 0.338364 0.315420
vt 0.318678 0.302062
vt 0.293985 0.018952
vt 0.354948 0.327240
vt 0.320918 0.003372
vt 0.368785 0.337569
vt 0.347317 0.009486
vt 0.328128 0.000000
vt 0.370971 0.617079
vt 0.349660 0.628512
vt 0.327101 0.637026
vt 0.368330 0.619890
vt 0.000000 0.242623
vt 0.050907 0.281992
vt 0.007926 0.264668
vt 0.025261 0.204905
vt 0.088421 0.293996
vt 0.120879 0.301701
vt 0.148575 0.305995
vt 0.051038 0.172616
vt 0.171719 0.307677
vt 0.175374 0.306233
vt 0.694931 0.818569
vt 0.711779 0.800371
vt 0.076368 0.145895
vt 0.712914 0.796564
vt 0.759524 0.809216
vt 0.100335 0.124642
vt 0.950937 0.000000
vt 0.052461 0.018716
vt 0.024521 0.000000
vt 0.085784 0.037610
vt 0.117607 0.050245
vt 0.113452 0.050497
vt 0.811904 0.944424
vt 0.869364 1.000000
vt 0.841204 0.992408
vt 0.790437 0.903040
vt 0.909617 0.967826
vt 0.775243 0.867526
vt 0.765058 0.837370
vt 0.758811 0.812224
vt 0.943239 0.935406
vt 0.122111 0.108534
vt 0.950937 0.926416
vt 0.125202 0.108131
vt 0.105491 0.476654
vt 0.151209 0.495154
vt 0.114322 0.491740
vt 0.121140 0.442075
vt 0.183847 0.495735
vt 0.137711 0.411698
vt 0.212317 0.494098
vt 0.236687 0.490833
vt 0.154523 0.385687
vt 0.257026 0.486521
vt 0.170901 0.364078
vt 0.260192 0.484299
vt 0.513529 0.722776
vt 0.515536 0.719456
vt 0.548167 0.736952
vt 0.186196 0.346771
vt 0.673435 0.838338
vt 0.188999 0.345502
vt 0.552901 0.851866
vt 0.580102 0.899596
vt 0.562153 0.891272
vt 0.615942 0.879637
vt 0.547452 0.817186
vt 0.545055 0.787024
vt 0.647109 0.858952
vt 0.545019 0.761220
vt 0.546690 0.739652
vt 0.225739 0.645021
vt 0.270271 0.651568
vt 0.236096 0.656520
vt 0.234184 0.611266
vt 0.300630 0.644892
vt 0.244021 0.581316
vt 0.254695 0.555287
vt 0.265645 0.533226
vt 0.276313 0.515103
vt 0.395286 0.639468
vt 0.495835 0.735619
vt 0.278766 0.513231
vt 0.372430 0.742998
vt 0.384324 0.787681
vt 0.371302 0.778189
vt 0.418215 0.775764
vt 0.375741 0.711765
vt 0.448180 0.762713
vt 0.380681 0.684500
vt 0.474069 0.749130
vt 0.386703 0.661189
vt 0.393260 0.641798
vt 0.561752 0.308681
vt 0.585733 0.596162
vt 0.555519 0.313309
vt 0.578385 0.312917
vt 0.597735 0.602345
vt 0.598628 0.317442
vt 0.607865 0.607992
vt 0.615766 0.320767
vt 0.616253 0.613003
vt 0.618599 0.320930
vt 0.618599 0.614845
vt 0.137788 0.338481
vt 0.128570 0.000000
vt 0.146761 0.026919
vt 0.128570 0.338568
vt 0.139469 0.336611
vt 0.148489 0.026818
vt 0.148752 0.328734
vt 0.165721 0.032112
vt 0.160548 0.319205
vt 0.186030 0.039536
vt 0.175252 0.307894
vt 0.209117 0.049312
vt 0.193335 0.294653
vt 0.234554 0.061568
vt 0.215357 0.279314
vt 0.261796 0.076331
vt 0.219576 0.280443
vt 0.266160 0.087046
vt 0.645616 0.312989
vt 0.655082 0.492353
vt 0.618599 0.308681
vt 0.674300 0.504991
vt 0.669558 0.316263
vt 0.690552 0.516245
vt 0.690582 0.318679
vt 0.704163 0.526133
vt 0.708785 0.320384
vt 0.715414 0.534684
vt 0.724217 0.321512
vt 0.724543 0.541926
vt 0.726851 0.544161
vt 0.726851 0.321423
vt 0.624778 0.774155
vt 0.618599 0.544161
vt 0.628987 0.562048
vt 0.618599 0.771577
vt 0.626676 0.772181
vt 0.630924 0.562125
vt 0.636143 0.764511
vt 0.646017 0.566713
vt 0.647973 0.755397
vt 0.663519 0.572863
vt 0.662482 0.744785
vt 0.683154 0.580713
vt 0.680048 0.732616
vt 0.704574 0.590357
vt 0.701111 0.718833
vt 0.727369 0.601830
vt 0.293273 0.732536
vt 0.266160 0.612557
vt 0.270554 0.614949
vt 0.290541 0.733751
vt 0.295139 0.615209
vt 0.314203 0.748335
vt 0.331594 0.761983
vt 0.317147 0.615041
vt 0.345905 0.773647
vt 0.336569 0.614544
vt 0.357530 0.783480
vt 0.353388 0.613814
vt 0.366796 0.791611
vt 0.367591 0.612945
vt 0.368919 0.793872
vt 0.369964 0.612557
vt 0.379500 0.617132
vt 0.375092 0.793229
vt 0.721563 0.796815
vt 0.723547 0.952293
vt 0.721563 0.954119
vt 0.723615 0.797008
vt 0.732610 0.946032
vt 0.737232 0.801466
vt 0.743754 0.938824
vt 0.752835 0.807294
vt 0.757207 0.930725
vt 0.770171 0.814613
vt 0.571710 0.589566
vt 0.532912 0.333855
vt 0.555500 0.582717
vt 0.510326 0.358775
vt 0.510326 0.276079
vt 0.500309 0.015331
vt 0.510326 0.000000
vt 0.504443 0.277337
vt 0.469758 0.036297
vt 0.486942 0.296305
vt 0.444247 0.052437
vt 0.472972 0.312259
vt 0.423066 0.064639
vt 0.461950 0.325549
vt 0.405679 0.073613
vt 0.453392 0.336477
vt 0.391675 0.079949
vt 0.446891 0.345298
vt 0.385374 0.554759
vt 0.383482 0.356214
vt 0.385476 0.356715
vt 0.383482 0.555661
vt 0.241901 0.637148
vt 0.263361 0.888404
vt 0.251464 0.890309
vt 0.263361 0.615600
vt 0.969835 0.537298
vt 0.967629 0.723759
vt 0.967282 0.538015
vt 0.969835 0.724817
vt 0.960759 0.722139
vt 0.955285 0.548954
vt 0.952726 0.720740
vt 0.942312 0.562940
vt 0.943538 0.719779
vt 0.928855 0.580096
vt 0.933209 0.719518
vt 0.915438 0.600438
vt 0.921774 0.720284
vt 0.902599 0.623859
vt 0.953123 0.870615
vt 0.962793 0.731458
vt 0.974090 0.724817
vt 0.945638 0.871212
vt 0.938916 0.732726
vt 0.927627 0.884617
vt 0.918957 0.732768
vt 0.913478 0.895937
vt 0.902512 0.731871
vt 0.902512 0.905405
vt 0.376759 0.955210
vt 0.371645 0.797076
vt 0.386985 0.800625
vt 0.366601 0.960822
vt 0.358273 0.794181
vt 0.358195 0.965809
vt 0.356188 0.793872
vt 0.356188 0.967386
vt 0.218516 0.795638
vt 0.240817 0.978324
vt 0.226890 0.980214
vt 0.240817 0.784744
vt 0.509832 0.345298
vt 0.508114 0.455896
vt 0.507913 0.346983
vt 0.509832 0.455863
vt 0.504240 0.458119
vt 0.501922 0.359882
vt 0.500146 0.461347
vt 0.496074 0.375477
vt 0.599801 0.811071
vt 0.596819 0.957448
vt 0.595559 0.821860
vt 0.599801 0.964770
vt 0.592017 0.948954
vt 0.589300 0.834050
vt 0.584833 0.939208
vt 0.580784 0.847519
vt 0.576549 0.940438
vt 0.570400 0.851126
vt 0.200091 0.897280
vt 0.197306 0.799252
vt 0.218516 0.804427
vt 0.180834 0.909857
vt 0.177733 0.794744
vt 0.164558 0.921069
vt 0.159981 0.790884
vt 0.150932 0.930930
vt 0.144221 0.787649
vt 0.139674 0.939464
vt 0.130608 0.785015
vt 0.130542 0.946697
vt 0.128570 0.784744
vt 0.128570 0.948614
vt 0.476098 0.978263
vt 0.498717 0.816293
vt 0.490848 0.978316
vt 0.476098 0.817198
vt 0.266047 0.338568
vt 0.265524 0.419467
vt 0.265470 0.341012
vt 0.266047 0.418505
vt 0.570400 0.811071
vt 0.566766 0.964503
vt 0.565007 0.817638
vt 0.570400 0.969489
vt 0.557609 0.825140
vt 0.561459 0.958448
vt 0.547941 0.833459
vt 0.554028 0.951231
vt 0.535766 0.842467
vt 0.543928 0.942745
vt 0.520871 0.852024
vt 0.530497 0.932870
vt 0.522078 0.933348
vt 0.510326 0.851963
vt 0.884524 0.840081
vt 0.880200 0.743058
vt 0.902512 0.749425
vt 0.863496 0.855739
vt 0.859638 0.737438
vt 0.846028 0.869279
vt 0.841075 0.732581
vt 0.831654 0.880862
vt 0.824720 0.728487
vt 0.819981 0.890636
vt 0.810739 0.725145
vt 0.810677 0.898726
vt 0.808854 0.724817
vt 0.808854 0.900659
vt 0.486709 0.815572
vt 0.500680 0.647685
vt 0.500680 0.816293
vt 0.478782 0.641209
vt 0.477970 0.642358
vt 0.485863 0.814097
vt 0.468690 0.646602
vt 0.479398 0.808514
vt 0.456792 0.651088
vt 0.470702 0.801693
vt 0.442006 0.655643
vt 0.459292 0.793513
vt 0.424050 0.660091
vt 0.444589 0.783834
vt 0.402630 0.664250
vt 0.425893 0.772495
vt 0.418227 0.772637
vt 0.391675 0.660753
vt 0.802089 0.465730
vt 0.802020 0.336078
vt 0.826122 0.345638
vt 0.780517 0.481446
vt 0.779928 0.327598
vt 0.762896 0.494802
vt 0.760159 0.320262
vt 0.748648 0.506041
vt 0.742951 0.314097
vt 0.737284 0.515374
vt 0.728461 0.309096
vt 0.728395 0.522982
vt 0.726851 0.308681
vt 0.726851 0.524669
vt 0.192526 0.611816
vt 0.255335 0.407609
vt 0.203827 0.615600
vt 0.239113 0.387903
vt 0.237425 0.388156
vt 0.191531 0.609713
vt 0.224330 0.384749
vt 0.185161 0.601091
vt 0.208151 0.379617
vt 0.176742 0.590394
vt 0.188597 0.372367
vt 0.165864 0.577367
vt 0.165307 0.362555
vt 0.152032 0.561708
vt 0.137830 0.349662
vt 0.134655 0.543064
vt 0.128570 0.541690
vt 0.128570 0.338568
vt 0.469566 0.388207
vt 0.459201 0.593795
vt 0.438766 0.607005
vt 0.496074 0.403902
vt 0.445567 0.374410
vt 0.422407 0.618128
vt 0.424449 0.362645
vt 0.409460 0.627404
vt 0.406452 0.352956
vt 0.399370 0.635040
vt 0.391675 0.345298
vt 0.391675 0.641209
vt 0.381442 0.356214
vt 0.383365 0.590678
vt 0.381442 0.591725
vt 0.383482 0.356526
vt 0.986659 0.318489
vt 0.973870 0.000000
vt 0.999108 0.021113
vt 0.973870 0.320798
vt 0.126430 0.042649
vt 0.062468 0.375570
vt 0.061079 0.373055
vt 0.128570 0.043357
vt 0.110089 0.030769
vt 0.053844 0.363417
vt 0.089922 0.014802
vt 0.044519 0.351612
vt 0.064678 0.001436
vt 0.032741 0.337420
vt 0.072601 0.000000
vt 0.033659 0.009077
vt 0.018075 0.320582
vt 0.000000 0.019555
vt 0.000000 0.300801
vt 0.960658 0.014727
vt 0.973870 0.244000
vt 0.966111 0.245803
vt 0.973870 0.000000
vt 0.934494 0.025960
vt 0.951172 0.258349
vt 0.784795 0.547115
vt 0.775138 0.768832
vt 0.760651 0.776403
vt 0.808854 0.544161
vt 0.763624 0.549302
vt 0.748308 0.783374
vt 0.745207 0.550866
vt 0.737934 0.789649
vt 0.729486 0.551928
vt 0.729378 0.795153
vt 0.727369 0.551897
vt 0.727369 0.796815
vt 0.981445 0.724817
vt 0.995889 0.469008
vt 0.995889 0.723099
vt 0.969835 0.488977
vt 0.104160 0.375570
vt 0.106642 0.627422
vt 0.104497 0.625073
vt 0.106642 0.375682
vt 0.087880 0.380153
vt 0.095181 0.617119
vt 0.068960 0.386563
vt 0.083504 0.607627
vt 0.047718 0.395002
vt 0.069140 0.596526
vt 0.024567 0.405599
vt 0.051702 0.583732
vt 0.030732 0.569164
vt 0.000000 0.418410
vt 0.496074 0.466976
vt 0.507961 0.592687
vt 0.499457 0.592971
vt 0.507961 0.461347
vt 0.586067 0.615779
vt 0.582748 0.757129
vt 0.563149 0.770530
vt 0.610826 0.614845
vt 0.563849 0.616298
vt 0.546629 0.782382
vt 0.544152 0.616487
vt 0.532838 0.792731
vt 0.526981 0.616423
vt 0.521474 0.801632
vt 0.512359 0.616178
vt 0.512282 0.809131
vt 0.510326 0.616005
vt 0.510326 0.811071
vt 0.452800 0.823219
vt 0.476098 1.000000
vt 0.461549 0.999662
vt 0.476098 0.816293
vt 0.706758 0.774321
vt 0.709336 0.948635
vt 0.707028 0.946454
vt 0.709336 0.774155
vt 0.697896 0.939914
vt 0.692618 0.779115
vt 0.686640 0.932340
vt 0.676420 0.785477
vt 0.673021 0.923771
vt 0.658453 0.793548
vt 0.656757 0.914261
vt 0.639053 0.803432
vt 0.637522 0.903888
vt 0.618599 0.815188
vt 0.255335 0.338568
vt 0.263721 0.426520
vt 0.255737 0.424964
vt 0.265470 0.338568
vt 0.910893 0.000531
vt 0.926491 0.100441
vt 0.907283 0.118665
vt 0.934494 0.000000
vt 0.889572 0.000755
vt 0.891427 0.134275
vt 0.870626 0.000731
vt 0.878464 0.147512
vt 0.854135 0.000517
vt 0.868006 0.158587
vt 0.840165 0.000174
vt 0.859728 0.167679
vt 0.838285 0.000000
vt 0.858173 0.169770
vt 0.108941 0.615600
vt 0.121741 0.778748
vt 0.108941 0.776418
vt 0.128570 0.618191
vt 0.388237 0.487138
vt 0.390583 0.356214
vt 0.390583 0.488778
vt 0.387995 0.356700
vt 0.348820 0.946203
vt 0.356188 0.793872
vt 0.356188 0.952055
vt 0.345255 0.799133
vt 0.339099 0.938957
vt 0.331739 0.804953
vt 0.326556 0.930149
vt 0.315538 0.811186
vt 0.310630 0.919582
vt 0.296583 0.817674
vt 0.290647 0.907025
vt 0.274834 0.824257
vt 0.266160 0.822595
vt 0.283772 0.906229
vt 0.085007 0.652526
vt 0.087029 0.747635
vt 0.065008 0.762333
vt 0.107798 0.659427
vt 0.064489 0.646056
vt 0.047057 0.774810
vt 0.046392 0.640119
vt 0.032572 0.785298
vt 0.030813 0.634805
vt 0.021044 0.793998
vt 0.017806 0.630192
vt 0.012049 0.801082
vt 0.016293 0.629515
vt 0.010512 0.802644
vt 0.000000 0.627422
vt 0.000000 0.804811
vt 0.836561 0.176884
vt 0.838285 0.000000
vt 0.838285 0.178775
vt 0.836370 0.000758
vt 0.827823 0.169497
vt 0.823049 0.002574
vt 0.816607 0.160415
vt 0.806890 0.004168
vt 0.802492 0.149455
vt 0.787790 0.005363
vt 0.784974 0.136402
vt 0.765641 0.005980
vt 0.763456 0.121005
vt 0.740323 0.005832
vt 0.732145 0.061680
vt 0.712756 0.171497
vt 0.705879 0.172050
vt 0.740323 0.064587
vt 0.710066 0.048915
vt 0.685322 0.183676
vt 0.690407 0.037221
vt 0.668908 0.193489
vt 0.673331 0.026762
vt 0.655954 0.201692
vt 0.658921 0.017663
vt 0.645891 0.208461
vt 0.647177 0.010005
vt 0.638245 0.213943
vt 0.646159 0.009158
vt 0.637182 0.215118
vt 0.624002 0.000000
vt 0.624002 0.217377
vt 0.379359 0.610334
vt 0.381442 0.380805
vt 0.381442 0.612557
vt 0.379065 0.381015
vt 0.370076 0.602248
vt 0.363372 0.378906
vt 0.358392 0.592445
vt 0.344457 0.375658
vt 0.343958 0.580788
vt 0.322132 0.371003
vt 0.326362 0.567112
vt 0.296145 0.364639
vt 0.305116 0.551234
vt 0.266160 0.356214
vt 0.624002 0.112333
vt 0.577117 0.277418
vt 0.613233 0.104382
vt 0.585245 0.277603
vt 0.592951 0.083504
vt 0.560538 0.285480
vt 0.575390 0.064853
vt 0.547710 0.292374
vt 0.560667 0.048669
vt 0.537942 0.298211
vt 0.548774 0.035081
vt 0.530660 0.303088
vt 0.539586 0.024106
vt 0.525389 0.307086
vt 0.539235 0.023354
vt 0.524976 0.307999
vt 0.510326 0.308681
vt 0.510326 0.000000
vt 0.389392 0.353946
vt 0.391675 0.027712
vt 0.391675 0.356214
vt 0.388918 0.027277
vt 0.380180 0.346455
vt 0.370095 0.019698
vt -0.000000 0.242623
vt 0.050907 0.281992
vt 0.007926 0.264668
vt 0.025260 0.204905
vt 0.088421 0.293996
vt 0.120879 0.301701
vt 0.148575 0.305995
vt 0.051038 0.172616
vt 0.171718 0.307677
vt 0.175374 0.306233
vt 0.694931 0.818569
vt 0.711779 0.800371
vt 0.076368 0.145895
vt 0.712914 0.796564
vt 0.759524 0.809216
vt 0.100335 0.124642
vt 0.950937 0.000000
vt 0.052461 0.018716
vt 0.024521 -0.000000
vt 0.085784 0.037610
vt 0.117607 0.050245
vt 0.113451 0.050497
vt 0.811904 0.944424
vt 0.869364 1.000000
vt 0.790437 0.903040
vt 0.909617 0.967826
vt 0.775243 0.867526
vt 0.765058 0.837370
vt 0.758811 0.812224
vt 0.943239 0.935406
vt 0.122111 0.108534
vt 0.950937 0.926416
vt 0.125202 0.108131
vt 0.105491 0.476654
vt 0.151209 0.495154
vt 0.114322 0.491740
vt 0.121140 0.442075
vt 0.183847 0.495735
vt 0.137711 0.411698
vt 0.212317 0.494097
vt 0.236687 0.490833
vt 0.154523 0.385687
vt 0.257025 0.486521
vt 0.170901 0.364078
vt 0.260192 0.484299
vt 0.515536 0.719456
vt 0.186196 0.346771
vt 0.673435 0.838338
vt 0.188999 0.345502
vt 0.552901 0.851866
vt 0.547452 0.817186
vt 0.545055 0.787024
vt 0.545019 0.761220
vt 0.225739 0.645021
vt 0.270271 0.651568
vt 0.236096 0.656520
vt 0.234184 0.611266
vt 0.300630 0.644892
vt 0.244021 0.581316
vt 0.327101 0.637026
vt 0.254695 0.555287
vt 0.265645 0.533226
vt 0.368330 0.619890
vt 0.276313 0.515103
vt 0.370971 0.617079
vt 0.395286 0.639468
vt 0.495835 0.735620
vt 0.278766 0.513231
vt 0.372430 0.742998
vt 0.384323 0.787681
vt 0.371301 0.778189
vt 0.418215 0.775764
vt 0.375741 0.711765
vt 0.448180 0.762713
vt 0.380681 0.684500
vt 0.474070 0.749130
vt 0.386703 0.661189
vt 0.393260 0.641798
vt 0.265645 0.533226
vt 0.276313 0.515103
vt 0.278766 0.513231
vt 0.170901 0.364078
vt 0.186196 0.346771
vt 0.188999 0.345502
vt 0.100335 0.124642
vt 0.051038 0.172616
vt 0.076368 0.145895
vt 0.025261 0.204905
vt 0.122111 0.108534
vt -0.000000 0.242623
vt 0.125202 0.108131
vt 0.950937 -0.000000
vt 0.052461 0.018716
vt 0.024521 -0.000000
vt 0.085784 0.037610
vt 0.117607 0.050245
vt 0.113451 0.050497
vt 0.007926 0.264668
vt 0.050907 0.281992
vt 0.088421 0.293996
vt 0.120879 0.301701
vt 0.148575 0.305995
vt 0.175374 0.306233
vt 0.171719 0.307677
vt 0.154523 0.385687
vt 0.137711 0.411698
vt 0.121140 0.442075
vt 0.114322 0.491740
vt 0.151209 0.495154
vt 0.183847 0.495735
vt 0.212317 0.494097
vt 0.236687 0.490833
vt 0.260192 0.484299
vt 0.254695 0.555287
vt 0.244021 0.581316
vt 0.225739 0.645021
vt 0.236096 0.656520
vt 0.300630 0.644892
vt 0.370971 0.617079
vt 0.759524 0.809216
vt 0.950937 0.926416
vt 0.349660 0.628512
vt 0.395286 0.639468
vt 0.393260 0.641798
vt 0.386703 0.661189
vt 0.515536 0.719456
vt 0.380681 0.684500
vt 0.375741 0.711765
vt 0.372430 0.742998
vt 0.371302 0.778189
vt 0.384324 0.787681
vt 0.418215 0.775764
vt 0.448180 0.762713
vt 0.474070 0.749130
vt 0.495835 0.735619
vt 0.548167 0.736952
vt 0.546690 0.739652
vt 0.712915 0.796564
vt 0.545019 0.761220
vt 0.545056 0.787024
vt 0.547452 0.817186
vt 0.552901 0.851866
vt 0.562153 0.891272
vt 0.580102 0.899596
vt 0.615942 0.879637
vt 0.647109 0.858952
vt 0.758811 0.812224
vt 0.765058 0.837370
vt 0.775243 0.867525
vt 0.790437 0.903040
vt 0.811904 0.944424
vt 0.841204 0.992408
vt 0.869364 1.000000
vt 0.909617 0.967826
vt 0.943239 0.935406
vt 0.673435 0.838338
vt 0.711779 0.800371
vt 0.694932 0.818569
vt 0.513529 0.722776
vt 0.368331 0.619890
vt 0.987192 0.419936
vt 0.942182 0.397832
vt 0.984808 0.406416
vt 0.950073 0.442581
vt 0.906261 0.392669
vt 0.918084 0.459718
vt 0.876279 0.390059
vt 0.890803 0.472425
vt 0.851579 0.389296
vt 0.867853 0.481591
vt 0.831603 0.389796
vt 0.827356 0.391185
vt 0.902905 0.289919
vt 0.923176 0.244055
vt 0.930040 0.255944
vt 0.880186 0.250568
vt 0.878707 0.316964
vt 0.844665 0.258002
vt 0.857417 0.338235
vt 0.815599 0.265804
vt 0.838986 0.354697
vt 0.792126 0.273535
vt 0.823362 0.367154
vt 0.773527 0.280837
vt 0.818519 0.369100
vt 0.848911 0.487952
vt 0.770011 0.283595
vt 0.754153 0.265864
vt 0.984808 0.593584
vt 0.950073 0.557419
vt 0.987192 0.580064
vt 0.942182 0.602168
vt 0.918084 0.540282
vt 0.890803 0.527575
vt 0.906261 0.607331
vt 0.867853 0.518409
vt 0.848911 0.512048
vt 0.876279 0.609941
vt 0.844444 0.511900
vt 0.806369 0.162597
vt 0.809731 0.112566
vt 0.820248 0.121390
vt 0.771561 0.133389
vt 0.792880 0.196287
vt 0.740725 0.152523
vt 0.780149 0.223557
vt 0.768460 0.245330
vt 0.716080 0.169796
vt 0.758039 0.262379
vt 0.696667 0.185089
vt 0.843694 0.488125
vt 0.681687 0.198312
vt 0.851579 0.610704
vt 0.679326 0.202106
vt 0.658361 0.190869
vt 0.923176 0.755944
vt 0.902905 0.710081
vt 0.930041 0.744055
vt 0.878707 0.683036
vt 0.880186 0.749432
vt 0.857417 0.661765
vt 0.838986 0.645302
vt 0.823362 0.632846
vt 0.844665 0.741998
vt 0.819216 0.631180
vt 0.576714 0.134626
vt 0.567160 0.152175
vt 0.815599 0.734196
vt 0.566239 0.156548
vt 0.542695 0.153159
vt 0.792127 0.726465
vt 0.806369 0.837403
vt 0.780149 0.776443
vt 0.792880 0.803713
vt 0.768460 0.754670
vt 0.758039 0.737621
vt 0.820248 0.878610
vt 0.754712 0.734637
vt 0.567160 0.847825
vt 0.566085 0.842717
vt 0.576715 0.865374
vt 0.664781 0.833321
vt 0.658714 0.809794
vt 0.660820 0.813736
vt 0.315084 0.075970
vt 0.316237 0.112242
vt 0.668319 0.857779
vt 0.670955 0.887758
vt 0.318873 0.142221
vt 0.672108 0.924030
vt 0.322410 0.166679
vt 0.328477 0.190206
vt 0.326372 0.186264
vt 0.516315 0.040487
vt 0.486732 0.000000
vt 0.500460 0.000000
vt 0.527637 0.074966
vt 0.535414 0.104039
vt 0.540455 0.128232
vt 0.470876 0.040487
vt 0.543431 0.147991
vt 0.773527 0.719163
vt 0.459554 0.074966
vt 0.769420 0.715942
vt 0.451778 0.104039
vt 0.809731 0.887434
vt 0.446736 0.128232
vt 0.771561 0.866611
vt 0.443761 0.147991
vt 0.444391 0.152415
vt 0.421107 0.157283
vt 0.740725 0.847476
vt 0.410477 0.134626
vt 0.397465 0.113616
vt 0.716080 0.830204
vt 0.380214 0.088956
vt 0.357782 0.060429
vt 0.329036 0.027806
vt 0.696667 0.814911
vt 0.681687 0.801688
vt 0.316135 0.032501
vt 0.678929 0.797256
vt 0.420031 0.152175
vt 0.672108 0.075970
vt 0.658156 0.027806
vt 0.671056 0.032501
vt 0.629409 0.060429
vt 0.670955 0.112242
vt 0.668319 0.142221
vt 0.664781 0.166679
vt 0.606977 0.088956
vt 0.660820 0.186264
vt 0.831603 0.610204
vt 0.589726 0.113616
vt 0.826642 0.608582
vt 0.671056 0.967499
vt 0.308262 0.202744
vt 0.658156 0.972194
vt 0.305504 0.198312
vt 0.290524 0.185089
vt 0.629409 0.939571
vt 0.271112 0.169796
vt 0.246467 0.152524
vt 0.606977 0.911044
vt 0.589726 0.886384
vt 0.215631 0.133389
vt 0.542801 0.847585
vt 0.177460 0.112566
vt 0.543431 0.852009
vt 0.540455 0.871768
vt 0.535414 0.895961
vt 0.166944 0.121390
vt 0.232479 0.265363
vt 0.527638 0.925034
vt 0.217772 0.284058
vt 0.516315 0.959513
vt 0.213664 0.280837
vt 0.195065 0.273535
vt 0.444497 0.846842
vt 0.500460 1.000000
vt 0.443761 0.852009
vt 0.446737 0.871768
vt 0.451778 0.895961
vt 0.486732 1.000000
vt 0.459554 0.925034
vt 0.470876 0.959513
vt 0.397466 0.886384
vt 0.167976 0.368820
vt 0.410477 0.865374
vt 0.160550 0.391418
vt 0.380214 0.911044
vt 0.155588 0.389796
vt 0.135613 0.389296
vt 0.328831 0.809132
vt 0.357783 0.939571
vt 0.326372 0.813736
vt 0.322410 0.833321
vt 0.318873 0.857779
vt 0.329036 0.972194
vt 0.316237 0.887758
vt 0.315084 0.924030
vt 0.316136 0.967499
vt 0.110912 0.390059
vt 0.307866 0.797894
vt 0.305505 0.801688
vt 0.290524 0.814911
vt 0.142747 0.488100
vt 0.143498 0.511875
vt 0.233038 0.734136
vt 0.271112 0.830204
vt 0.138281 0.512048
vt 0.229153 0.737621
vt 0.218732 0.754670
vt 0.246467 0.847477
vt 0.207043 0.776443
vt 0.215631 0.866611
vt 0.194312 0.803714
vt 0.180822 0.837404
vt 0.177460 0.887434
vt 0.166944 0.878610
vt 0.119339 0.518409
vt 0.217181 0.716405
vt 0.213665 0.719163
vt 0.159836 0.608815
vt 0.168673 0.630900
vt 0.195065 0.726465
vt 0.163829 0.632846
vt 0.148206 0.645303
vt 0.171593 0.734196
vt 0.129775 0.661765
vt 0.142526 0.741998
vt 0.108485 0.683036
vt 0.107006 0.749432
vt 0.084286 0.710081
vt 0.064015 0.755945
vt 0.057151 0.744056
vt 0.096389 0.527575
vt 0.155588 0.610204
vt 0.135613 0.610704
vt 0.110912 0.609941
vt 0.069108 0.540282
vt 0.080930 0.607331
vt 0.037119 0.557419
vt 0.045009 0.602168
vt 0.000000 0.580064
vt 0.002384 0.593584
vt 0.080930 0.392669
vt 0.138281 0.487952
vt 0.119339 0.481591
vt 0.045009 0.397832
vt 0.096389 0.472425
vt 0.069108 0.459718
vt 0.002384 0.406416
vt 0.037119 0.442581
vt 0.000000 0.419936
vt 0.171593 0.265804
vt 0.420952 0.843452
vt 0.142526 0.258002
vt 0.420031 0.847825
vt 0.107006 0.250568
vt 0.163829 0.367154
vt 0.148206 0.354698
vt 0.064015 0.244056
vt 0.129775 0.338235
vt 0.108485 0.316964
vt 0.084286 0.289919
vt 0.057151 0.255945
vt 0.180822 0.162597
vt 0.229153 0.262379
vt 0.218732 0.245330
vt 0.194312 0.196287
vt 0.207043 0.223557
s 0
f 1/1/1 2/2/1 3/3/1
f 2/2/1 1/1/1 4/4/1
f 3/3/2 5/5/2 1/1/2
f 5/5/2 3/3/2 6/6/2
f 7/7/3 4/8/3 8/9/3
f 4/8/3 7/7/3 2/10/3
f 6/6/4 9/11/4 5/5/4
f 9/11/4 6/6/4 10/12/4
f 10/12/5 11/13/5 9/11/5
f 11/13/5 10/12/5 12/14/5
f 12/14/6 13/15/6 11/13/6
f 13/15/6 12/14/6 14/16/6
f 14/16/7 15/17/7 13/15/7
f 15/17/7 14/16/7 16/18/7
f 16/18/8 17/19/8 15/17/8
f 17/19/8 16/18/8 18/20/8
f 18/20/9 19/21/9 17/19/9
f 19/21/9 18/20/9 20/22/9
f 20/23/10 21/24/10 19/25/10
f 21/24/10 20/23/10 22/26/10
f 22/26/11 23/27/11 21/24/11
f 23/27/11 22/26/11 24/28/11
f 24/28/12 25/29/12 23/27/12
f 25/29/12 24/28/12 26/30/12
f 26/30/13 27/31/13 25/29/13
f 27/31/13 26/30/13 28/32/13
f 28/32/14 29/33/14 27/31/14
f 29/33/14 28/32/14 30/34/14
f 30/34/15 31/35/15 29/33/15
f 31/35/15 30/34/15 32/36/15
f 33/37/16 31/38/16 32/39/16
f 31/38/16 33/37/16 34/40/16
f 33/37/17 35/41/17 34/40/17
f 35/41/17 33/37/17 36/42/17
f 36/42/18 37/43/18 35/41/18
f 37/43/18 36/42/18 38/44/18
f 38/44/19 39/45/19 37/43/19
f 39/45/19 38/44/19 40/46/19
f 40/46/20 41/47/20 39/45/20
f 41/47/20 40/46/20 42/48/20
f 42/48/21 43/49/21 41/47/21
f 43/49/21 42/48/21 44/50/21
f 44/51/22 45/52/22 43/53/22
f 45/52/22 44/51/22 46/54/22
f 47/55/23 45/56/23 46/57/23
f 45/56/24 47/55/24 48/58/24
f 47/59/25 49/60/25 48/61/25
f 49/60/25 47/59/25 50/62/25
f 50/62/26 51/63/26 49/60/26
f 51/63/26 50/62/26 52/64/26
f 52/64/27 53/65/27 51/63/27
f 53/65/28 52/64/28 54/66/28
f 54/66/29 55/67/29 53/65/29
f 55/67/30 54/66/30 56/68/30
f 56/68/31 57/69/31 55/67/31
f 57/69/31 56/68/31 58/70/31
f 58/70/32 59/71/32 57/69/32
f 59/71/32 58/70/32 60/72/32
f 61/73/33 59/74/33 60/75/33
f 59/74/33 61/73/33 62/76/33
f 61/73/34 63/77/34 62/76/34
f 63/77/34 61/73/34 64/78/34
f 64/79/35 65/80/35 63/81/35
f 65/80/35 64/79/35 66/82/35
f 66/82/36 67/83/36 65/80/36
f 67/83/36 66/82/36 68/84/36
f 68/84/37 69/85/37 67/83/37
f 69/85/38 68/84/38 70/86/38
f 70/86/39 71/87/39 69/85/39
f 71/87/39 70/86/39 72/88/39
f 72/88/40 73/89/40 71/87/40
f 73/89/40 72/88/40 74/90/40
f 75/91/41 73/92/41 74/93/41
f 73/92/41 75/91/41 76/94/41
f 75/95/42 77/96/42 76/97/42
f 77/96/42 75/95/42 78/98/42
f 78/99/43 79/100/43 77/101/43
f 79/100/43 78/99/43 80/102/43
f 80/102/44 81/103/44 79/100/44
f 81/103/45 80/102/45 82/104/45
f 82/104/46 83/105/46 81/103/46
f 83/105/46 82/104/46 84/106/46
f 84/106/47 85/107/47 83/105/47
f 85/107/47 84/106/47 86/108/47
f 86/108/48 87/109/48 85/107/48
f 87/109/48 86/108/48 88/110/48
f 89/111/49 87/109/49 88/110/49
f 87/109/49 89/111/49 90/112/49
f 89/113/50 91/114/50 90/115/50
f 91/114/50 89/113/50 92/116/50
f 92/116/51 93/117/51 91/114/51
f 93/117/51 92/116/51 94/118/51
f 94/118/52 95/119/52 93/117/52
f 95/119/52 94/118/52 96/120/52
f 96/120/52 94/118/52 97/121/52
f 98/122/53 99/123/53 100/124/53
f 99/123/54 98/122/54 101/125/54
f 102/126/53 103/127/53 104/128/53
f 103/127/55 102/126/55 105/129/55
f 103/127/55 105/129/55 106/130/55
f 106/130/53 105/129/53 107/131/53
f 107/131/53 105/129/53 108/132/53
f 108/132/53 105/129/53 109/133/53
f 108/132/55 109/133/55 110/134/55
f 110/134/53 109/133/53 111/135/53
f 111/135/55 109/133/55 112/136/55
f 112/136/55 109/133/55 113/137/55
f 113/137/55 109/133/55 114/138/55
f 113/137/55 114/138/55 115/139/55
f 115/139/53 114/138/53 116/140/53
f 116/140/55 114/138/55 117/141/55
f 118/142/53 119/143/53 120/144/53
f 119/143/55 118/142/55 121/145/55
f 121/145/55 118/142/55 122/146/55
f 121/145/53 122/146/53 123/147/53
f 124/148/55 125/149/55 126/150/55
f 125/149/53 124/148/53 127/151/53
f 125/149/55 127/151/55 128/152/55
f 128/152/53 127/151/53 129/153/53
f 128/152/55 129/153/55 130/154/55
f 128/152/55 130/154/55 131/155/55
f 128/152/55 131/155/55 132/156/55
f 132/156/56 131/155/56 116/140/56
f 132/156/55 116/140/55 117/141/55
f 132/156/53 117/141/53 133/157/53
f 132/156/55 133/157/55 134/158/55
f 134/158/56 133/157/56 135/159/56
f 134/158/53 135/159/53 122/146/53
f 134/158/55 122/146/55 118/142/55
f 136/160/53 137/161/53 138/162/53
f 137/161/55 136/160/55 139/163/55
f 137/161/53 139/163/53 140/164/53
f 140/164/55 139/163/55 141/165/55
f 140/164/53 141/165/53 142/166/53
f 142/166/55 141/165/55 143/167/55
f 143/167/53 141/165/53 144/168/53
f 143/167/53 144/168/53 145/169/53
f 145/169/55 144/168/55 146/170/55
f 145/169/55 146/170/55 147/171/55
f 147/171/55 146/170/55 148/172/55
f 148/172/55 146/170/55 149/173/55
f 149/173/53 146/170/53 150/174/53
f 150/174/55 146/170/55 151/175/55
f 150/174/55 151/175/55 152/176/55
f 152/176/55 151/175/55 112/136/55
f 112/136/55 151/175/55 153/177/55
f 112/136/56 153/177/56 111/135/56
f 154/178/55 155/179/55 156/180/55
f 155/179/53 154/178/53 157/181/53
f 157/181/53 154/178/53 158/182/53
f 157/181/55 158/182/55 159/183/55
f 157/181/53 159/183/53 160/184/53
f 160/184/55 159/183/55 161/185/55
f 160/184/53 161/185/53 162/186/53
f 160/184/53 162/186/53 152/176/53
f 152/176/55 162/186/55 150/174/55
f 163/187/53 164/188/53 165/189/53
f 164/188/55 163/187/55 166/190/55
f 164/188/55 166/190/55 167/191/55
f 167/191/55 166/190/55 168/192/55
f 167/191/53 168/192/53 100/124/53
f 100/124/55 168/192/55 169/193/55
f 100/124/53 169/193/53 98/122/53
f 98/122/55 169/193/55 170/194/55
f 98/122/53 170/194/53 171/195/53
f 98/122/56 171/195/56 172/196/56
f 172/196/53 171/195/53 173/197/53
f 173/197/53 171/195/53 148/172/53
f 148/172/53 171/195/53 174/198/53
f 148/172/53 174/198/53 147/171/53
f 175/199/53 176/200/53 177/201/53
f 176/200/55 175/199/55 178/202/55
f 178/202/55 175/199/55 179/203/55
f 178/202/53 179/203/53 180/204/53
f 180/204/53 179/203/53 181/205/53
f 180/204/55 181/205/55 182/206/55
f 182/206/55 181/205/55 183/207/55
f 182/206/53 183/207/53 173/197/53
f 173/197/55 183/207/55 184/208/55
f 173/197/55 184/208/55 172/196/55
f 134/209/57 185/210/57 132/211/57
f 185/210/57 134/209/57 186/212/57
f 185/210/57 186/212/57 187/213/57
f 188/214/58 187/213/58 186/212/58
f 187/213/58 188/214/58 189/215/58
f 190/216/59 189/215/59 188/214/59
f 189/215/59 190/216/59 191/217/59
f 192/218/60 191/217/60 190/216/60
f 191/217/60 192/218/60 193/219/60
f 194/220/61 192/221/61 195/222/61
f 192/221/61 194/220/61 193/223/61
f 196/224/62 195/222/62 197/225/62
f 195/222/62 196/224/62 194/220/62
f 197/225/63 198/226/63 196/224/63
f 198/226/63 197/225/63 199/227/63
f 199/227/64 200/228/64 198/226/64
f 200/228/64 199/227/64 201/229/64
f 201/229/65 202/230/65 200/228/65
f 202/230/65 201/229/65 203/231/65
f 203/231/66 204/232/66 202/230/66
f 204/232/66 203/231/66 205/233/66
f 205/233/67 206/234/67 204/232/67
f 206/234/67 205/233/67 207/235/67
f 208/236/68 207/235/68 209/237/68
f 207/235/68 208/236/68 206/234/68
f 210/238/69 208/239/69 209/240/69
f 208/239/69 210/238/69 211/241/69
f 212/242/70 211/241/70 210/238/70
f 211/241/70 212/242/70 213/243/70
f 214/244/71 213/243/71 212/242/71
f 213/243/71 214/244/71 215/245/71
f 216/246/72 215/245/72 214/244/72
f 215/245/72 216/246/72 217/247/72
f 218/248/73 217/247/73 216/246/73
f 217/247/73 218/248/73 219/249/73
f 218/248/74 220/250/74 219/249/74
f 220/250/74 218/248/74 221/251/74
f 222/252/75 221/253/75 223/254/75
f 221/253/75 222/252/75 220/255/75
f 223/254/76 224/256/76 222/252/76
f 224/256/76 223/254/76 225/257/76
f 225/257/77 226/258/77 224/256/77
f 226/258/77 225/257/77 227/259/77
f 227/259/78 228/260/78 226/258/78
f 228/260/78 227/259/78 229/261/78
f 229/261/79 230/262/79 228/260/79
f 230/262/79 229/261/79 231/263/79
f 231/263/80 232/264/80 230/262/80
f 232/264/80 231/263/80 233/265/80
f 233/265/81 234/266/81 232/264/81
f 234/266/81 233/265/81 235/267/81
f 236/268/82 235/269/82 237/270/82
f 235/269/82 236/268/82 234/271/82
f 238/272/83 236/268/83 237/270/83
f 236/268/83 238/272/83 239/273/83
f 238/272/84 240/274/84 239/273/84
f 240/274/84 238/272/84 241/275/84
f 241/275/85 242/276/85 240/274/85
f 242/276/85 241/275/85 243/277/85
f 243/277/86 244/278/86 242/276/86
f 244/278/86 243/277/86 245/279/86
f 245/279/87 246/280/87 244/278/87
f 246/280/87 245/279/87 247/281/87
f 247/281/88 248/282/88 246/280/88
f 248/282/88 247/281/88 249/283/88
f 250/284/89 248/282/89 249/283/89
f 248/282/89 250/284/89 251/285/89
f 250/286/90 252/287/90 251/288/90
f 252/287/90 250/286/90 253/289/90
f 253/289/91 254/290/91 252/287/91
f 254/290/91 253/289/91 255/291/91
f 255/291/92 256/292/92 254/290/92
f 256/292/92 255/291/92 257/293/92
f 257/293/93 258/294/93 256/292/93
f 258/294/93 257/293/93 259/295/93
f 259/295/94 8/9/94 258/294/94
f 8/9/94 259/295/94 7/7/94
f 132/211/95 260/296/95 128/297/95
f 260/296/95 132/211/95 185/210/95
f 128/297/96 261/298/96 125/299/96
f 261/298/96 128/297/96 260/296/96
f 261/300/97 126/301/97 125/302/97
f 126/301/97 261/300/97 262/303/97
f 124/304/98 262/303/98 263/305/98
f 262/303/98 124/304/98 126/301/98
f 263/305/99 127/306/99 124/304/99
f 127/306/99 263/305/99 264/307/99
f 264/307/100 129/308/100 127/306/100
f 129/308/100 264/307/100 265/309/100
f 265/309/101 130/310/101 129/308/101
f 130/310/101 265/309/101 266/311/101
f 266/311/102 131/312/102 130/310/102
f 131/312/102 266/311/102 267/313/102
f 267/314/103 116/315/103 131/316/103
f 116/315/103 267/314/103 268/317/103
f 115/318/104 268/319/104 269/320/104
f 268/319/104 115/318/104 116/321/104
f 115/322/105 270/323/105 113/324/105
f 270/323/105 115/322/105 269/325/105
f 113/324/106 271/326/106 112/327/106
f 271/326/106 113/324/106 270/323/106
f 112/327/107 272/328/107 152/329/107
f 272/328/107 112/327/107 271/326/107
f 152/329/108 273/330/108 160/331/108
f 273/330/108 152/329/108 272/328/108
f 160/331/109 274/332/109 157/333/109
f 274/332/109 160/331/109 273/330/109
f 157/333/110 275/334/110 155/335/110
f 275/334/110 157/333/110 274/332/110
f 275/336/111 156/337/111 155/338/111
f 156/337/111 275/336/111 276/339/111
f 276/339/112 154/340/112 156/337/112
f 154/340/112 276/339/112 277/341/112
f 277/341/113 158/342/113 154/340/113
f 158/342/113 277/341/113 278/343/113
f 278/343/114 159/344/114 158/342/114
f 159/344/114 278/343/114 279/345/114
f 279/346/115 161/347/115 159/348/115
f 161/347/115 279/346/115 280/349/115
f 280/349/116 162/350/116 161/347/116
f 162/350/116 280/349/116 281/351/116
f 281/351/117 150/352/117 162/350/117
f 150/352/117 281/351/117 282/353/117
f 149/354/118 282/355/118 283/356/118
f 282/355/118 149/354/118 150/357/118
f 149/358/119 284/359/119 148/360/119
f 284/359/119 149/358/119 283/361/119
f 148/360/120 285/362/120 173/363/120
f 285/362/120 148/360/120 284/359/120
f 173/363/121 286/364/121 182/365/121
f 286/364/121 173/363/121 285/362/121
f 182/366/122 287/367/122 180/368/122
f 287/367/122 182/366/122 286/369/122
f 180/368/123 288/370/123 178/371/123
f 288/370/123 180/368/123 287/367/123
f 178/371/124 289/372/124 176/373/124
f 289/372/124 178/371/124 288/370/124
f 290/374/125 176/373/125 289/372/125
f 176/373/125 290/374/125 177/375/125
f 290/376/126 175/377/126 177/378/126
f 175/377/126 290/376/126 291/379/126
f 291/379/127 179/380/127 175/377/127
f 179/380/127 291/379/127 292/381/127
f 292/381/128 181/382/128 179/380/128
f 181/382/128 292/381/128 293/383/128
f 293/383/129 183/384/129 181/382/129
f 183/384/129 293/383/129 294/385/129
f 294/385/130 184/386/130 183/384/130
f 184/386/130 294/385/130 295/387/130
f 295/387/131 172/388/131 184/386/131
f 172/388/131 295/387/131 296/389/131
f 297/390/132 172/391/132 296/392/132
f 172/391/132 297/390/132 98/393/132
f 98/394/133 298/395/133 101/396/133
f 298/395/133 98/394/133 297/397/133
f 101/398/134 299/399/134 99/400/134
f 299/399/134 101/398/134 298/401/134
f 100/402/135 299/399/135 300/403/135
f 299/399/135 100/402/135 99/400/135
f 167/404/136 300/403/136 301/405/136
f 300/403/137 167/404/137 100/402/137
f 164/406/138 301/405/138 302/407/138
f 301/405/138 164/406/138 167/404/138
f 165/408/139 302/407/139 303/409/139
f 302/407/139 165/408/139 164/406/139
f 304/410/140 165/408/140 303/409/140
f 165/408/140 304/410/140 163/411/140
f 304/412/141 166/413/141 163/414/141
f 166/413/141 304/412/141 305/415/141
f 305/415/142 168/416/142 166/413/142
f 168/416/142 305/415/142 306/417/142
f 306/417/143 169/418/143 168/416/143
f 169/418/143 306/417/143 307/419/143
f 307/419/144 170/420/144 169/418/144
f 170/420/144 307/419/144 308/421/144
f 308/421/145 171/422/145 170/420/145
f 171/422/145 308/421/145 309/423/145
f 309/423/146 174/424/146 171/422/146
f 174/424/146 309/423/146 310/425/146
f 311/426/147 174/427/147 310/428/147
f 174/427/148 311/426/148 147/429/148
f 145/430/149 311/426/149 312/431/149
f 311/426/149 145/430/149 147/429/149
f 143/432/150 312/431/150 313/433/150
f 312/431/150 143/432/150 145/430/150
f 142/434/151 313/433/151 314/435/151
f 313/433/152 142/434/152 143/432/152
f 140/436/153 314/435/153 315/437/153
f 314/435/153 140/436/153 142/434/153
f 137/438/154 315/437/154 316/439/154
f 315/437/154 137/438/154 140/436/154
f 138/440/155 316/439/155 317/441/155
f 316/439/155 138/440/155 137/438/155
f 318/442/156 138/440/156 317/441/156
f 138/440/156 318/442/156 136/443/156
f 318/444/157 139/445/157 136/446/157
f 139/445/157 318/444/157 319/447/157
f 319/447/158 141/448/158 139/445/158
f 141/448/158 319/447/158 320/449/158
f 320/449/159 144/450/159 141/448/159
f 144/450/160 320/449/160 321/451/160
f 321/451/161 146/452/161 144/450/161
f 146/452/161 321/451/161 322/453/161
f 151/454/162 322/453/162 323/455/162
f 322/453/162 151/454/162 146/452/162
f 153/456/163 323/455/163 324/457/163
f 323/455/163 153/456/163 151/454/163
f 325/458/164 153/459/164 324/460/164
f 153/459/164 325/458/164 111/461/164
f 110/462/165 325/458/165 326/463/165
f 325/458/165 110/462/165 111/461/165
f 108/464/166 326/463/166 327/465/166
f 326/463/166 108/464/166 110/462/166
f 107/466/167 327/465/167 328/467/167
f 327/465/167 107/466/167 108/464/167
f 106/468/168 328/467/168 329/469/168
f 328/467/168 106/468/168 107/466/168
f 103/470/169 329/469/169 330/471/169
f 329/469/169 103/470/169 106/468/169
f 104/472/170 330/471/170 331/473/170
f 330/471/170 104/472/170 103/470/170
f 332/474/171 104/472/171 331/473/171
f 104/472/171 332/474/171 102/475/171
f 105/476/172 332/477/172 333/478/172
f 332/477/172 105/476/172 102/479/172
f 109/480/173 333/478/173 334/481/173
f 333/478/173 109/480/173 105/476/173
f 114/482/174 334/481/174 335/483/174
f 334/481/174 114/482/174 109/480/174
f 117/484/175 335/483/175 336/485/175
f 335/483/175 117/484/175 114/482/175
f 133/486/176 336/485/176 337/487/176
f 336/485/176 133/486/176 117/484/176
f 135/488/177 337/489/177 338/490/177
f 337/489/177 135/488/177 133/491/177
f 338/492/178 122/493/178 135/494/178
f 122/493/178 338/492/178 339/495/178
f 123/496/179 339/497/179 340/498/179
f 339/497/179 123/496/179 122/499/179
f 121/500/180 340/498/180 341/501/180
f 340/498/180 121/500/180 123/496/180
f 119/502/181 341/501/181 342/503/181
f 341/501/181 119/502/181 121/500/181
f 343/504/182 342/503/182 344/505/182
f 342/503/182 343/504/182 119/502/182
f 119/502/182 343/504/182 120/506/182
f 345/507/183 344/505/183 346/508/183
f 344/505/183 345/507/183 343/504/183
f 347/509/184 346/508/184 348/510/184
f 346/508/184 347/509/184 345/507/184
f 349/511/185 348/512/185 350/513/185
f 348/512/185 349/511/185 347/514/185
f 351/515/186 350/513/186 352/516/186
f 350/513/186 351/515/186 349/511/186
f 353/517/187 352/518/187 354/519/187
f 352/518/187 353/517/187 351/520/187
f 355/521/188 354/519/188 356/522/188
f 354/519/188 355/521/188 353/517/188
f 357/523/189 356/522/189 358/524/189
f 356/522/189 357/523/189 355/521/189
f 359/525/190 358/524/190 360/526/190
f 358/524/190 359/525/190 357/523/190
f 361/527/191 360/526/191 362/528/191
f 360/526/191 361/527/191 359/525/191
f 363/529/192 361/530/192 362/531/192
f 361/530/192 363/529/192 364/532/192
f 365/533/193 363/534/193 366/535/193
f 363/534/193 365/533/193 364/536/193
f 367/537/194 366/535/194 368/538/194
f 366/535/194 367/537/194 365/533/194
f 369/539/195 368/538/195 370/540/195
f 368/538/195 369/539/195 367/537/195
f 371/541/196 370/540/196 372/542/196
f 370/540/196 371/541/196 369/539/196
f 373/543/197 372/542/197 374/544/197
f 372/542/197 373/543/197 371/541/197
f 375/545/198 373/543/198 374/544/198
f 373/543/198 375/545/198 376/546/198
f 377/547/199 375/548/199 378/549/199
f 375/548/199 377/547/199 376/550/199
f 379/551/200 378/552/200 380/553/200
f 378/552/200 379/551/200 377/554/200
f 381/555/201 380/553/201 382/556/201
f 380/553/201 381/555/201 379/551/201
f 383/557/202 382/556/202 384/558/202
f 382/556/202 383/557/202 381/555/202
f 385/559/203 384/558/203 386/560/203
f 384/558/203 385/559/203 383/557/203
f 387/561/204 386/560/204 388/562/204
f 386/560/204 387/561/204 385/559/204
f 389/563/205 388/562/205 390/564/205
f 388/562/205 389/563/205 387/561/205
f 391/565/206 390/566/206 392/567/206
f 390/566/206 391/565/206 389/568/206
f 393/569/207 392/570/207 394/571/207
f 392/570/207 393/569/207 391/572/207
f 395/573/208 393/569/208 394/571/208
f 393/569/208 395/573/208 396/574/208
f 397/575/209 396/574/209 395/573/209
f 396/574/209 397/575/209 398/576/209
f 399/577/210 398/576/210 397/575/210
f 398/576/210 399/577/210 400/578/210
f 401/579/211 400/578/211 399/577/211
f 400/578/211 401/579/211 402/580/211
f 403/581/212 402/580/212 401/579/212
f 402/580/212 403/581/212 404/582/212
f 405/583/213 403/584/213 406/585/213
f 403/584/213 405/583/213 404/586/213
f 407/587/214 406/588/214 408/589/214
f 406/588/214 407/587/214 405/590/214
f 409/591/215 408/589/215 410/592/215
f 408/589/215 409/591/215 407/587/215
f 411/593/216 410/592/216 412/594/216
f 410/592/216 411/593/216 409/591/216
f 413/595/217 412/594/217 414/596/217
f 412/594/217 413/595/217 411/593/217
f 415/597/218 414/596/218 416/598/218
f 414/596/218 415/597/218 413/595/218
f 417/599/219 416/598/219 418/600/219
f 416/598/219 417/599/219 415/597/219
f 419/601/220 418/602/220 420/603/220
f 418/602/221 419/601/221 417/604/221
f 421/605/222 419/606/222 420/607/222
f 419/606/222 421/605/222 422/608/222
f 423/609/223 422/610/223 421/611/223
f 422/610/223 423/609/223 424/612/223
f 425/613/224 424/612/224 423/609/224
f 424/612/224 425/613/224 426/614/224
f 427/615/225 426/614/225 425/613/225
f 426/614/225 427/615/225 428/616/225
f 429/617/226 428/616/226 427/615/226
f 428/616/226 429/617/226 430/618/226
f 431/619/227 430/618/227 429/617/227
f 430/618/227 431/619/227 432/620/227
f 433/621/228 431/619/228 434/622/228
f 431/619/228 433/621/228 432/620/228
f 435/623/229 434/624/229 436/625/229
f 434/624/229 435/623/229 433/626/229
f 437/627/230 436/625/230 438/628/230
f 436/625/230 437/627/230 435/623/230
f 439/629/231 438/628/231 440/630/231
f 438/628/231 439/629/231 437/627/231
f 441/631/232 440/630/232 442/632/232
f 440/630/232 441/631/232 439/629/232
f 443/633/233 442/632/233 444/634/233
f 442/632/233 443/633/233 441/631/233
f 445/635/234 444/634/234 446/636/234
f 444/634/234 445/635/234 443/633/234
f 447/637/235 446/636/235 448/638/235
f 446/636/235 447/637/235 445/635/235
f 449/639/236 447/640/236 448/641/236
f 447/640/236 449/639/236 450/642/236
f 451/643/237 450/642/237 449/639/237
f 450/642/237 451/643/237 452/644/237
f 453/645/238 452/644/238 451/643/238
f 452/644/238 453/645/238 454/646/238
f 455/647/239 454/646/239 453/645/239
f 454/646/239 455/647/239 456/648/239
f 457/649/240 456/648/240 455/647/240
f 456/648/240 457/649/240 458/650/240
f 459/651/241 458/650/241 457/649/241
f 458/650/241 459/651/241 460/652/241
f 461/653/242 459/654/242 462/655/242
f 459/654/242 461/653/242 460/656/242
f 463/657/243 462/655/243 464/658/243
f 462/655/243 463/657/243 461/653/243
f 465/659/244 464/658/244 466/660/244
f 464/658/244 465/659/244 463/657/244
f 467/661/245 466/660/245 468/662/245
f 466/660/245 467/661/245 465/659/245
f 469/663/246 468/662/246 470/664/246
f 468/662/246 469/663/246 467/661/246
f 471/665/247 470/664/247 472/666/247
f 470/664/247 471/665/247 469/663/247
f 473/667/248 472/666/248 474/668/248
f 472/666/248 473/667/248 471/665/248
f 475/669/249 474/668/249 476/670/249
f 474/668/249 475/669/249 473/667/249
f 477/671/250 475/672/250 476/673/250
f 475/672/250 477/671/250 478/674/250
f 479/675/251 478/674/251 477/671/251
f 478/674/251 479/675/251 480/676/251
f 481/677/252 480/676/252 479/675/252
f 480/676/252 481/677/252 482/678/252
f 483/679/253 482/678/253 481/677/253
f 482/678/253 483/679/253 484/680/253
f 485/681/254 484/680/254 483/679/254
f 484/680/254 485/681/254 486/682/254
f 487/683/255 486/682/255 485/681/255
f 486/682/255 487/683/255 488/684/255
f 488/685/256 489/686/256 490/687/256
f 489/686/256 488/685/256 487/688/256
f 491/689/257 489/686/257 492/690/257
f 489/686/257 491/689/257 490/687/257
f 493/691/258 492/690/258 494/692/258
f 492/690/258 493/691/258 491/689/258
f 495/693/259 494/692/259 496/694/259
f 494/692/259 495/693/259 493/691/259
f 497/695/260 496/694/260 498/696/260
f 496/694/260 497/695/260 495/693/260
f 499/697/261 498/696/261 500/698/261
f 498/696/261 499/697/261 497/695/261
f 501/699/262 500/698/262 502/700/262
f 500/698/262 501/699/262 499/697/262
f 501/699/263 503/701/263 504/702/263
f 503/701/263 501/699/263 502/700/263
f 505/703/264 504/704/264 503/705/264
f 504/704/264 505/703/264 506/706/264
f 507/707/265 506/706/265 505/703/265
f 506/706/265 507/707/265 508/708/265
f 96/120/266 507/707/266 95/119/266
f 507/707/266 96/120/266 508/708/266
f 490/709/267 486/710/267 488/711/267
f 486/710/268 490/709/268 491/712/268
f 486/710/267 491/712/267 484/713/267
f 484/713/268 491/712/268 482/714/268
f 482/714/267 491/712/267 480/715/267
f 480/715/268 491/712/268 493/716/268
f 480/715/268 493/716/268 478/717/268
f 478/717/269 493/716/269 475/718/269
f 475/718/267 493/716/267 367/719/267
f 367/719/267 493/716/267 365/720/267
f 365/720/268 493/716/268 495/721/268
f 365/720/267 495/721/267 364/722/267
f 364/722/267 495/721/267 361/723/267
f 361/723/268 495/721/268 497/724/268
f 118/725/268 96/726/268 97/727/268
f 96/726/267 118/725/267 508/728/267
f 508/728/267 118/725/267 504/729/267
f 508/728/267 504/729/267 506/730/267
f 351/731/268 347/732/268 349/150/268
f 347/732/267 351/731/267 353/733/267
f 347/732/267 353/733/267 345/734/267
f 345/734/268 353/733/268 355/735/268
f 345/734/267 355/735/267 357/736/267
f 345/734/268 357/736/268 359/737/268
f 345/734/268 359/737/268 343/738/268
f 343/738/269 359/737/269 361/723/269
f 343/738/267 361/723/267 497/724/267
f 343/738/267 497/724/267 499/739/267
f 343/738/268 499/739/268 120/740/268
f 120/740/268 499/739/268 501/741/268
f 120/740/267 501/741/267 504/729/267
f 120/740/267 504/729/267 118/725/267
f 461/742/267 458/743/267 460/744/267
f 458/743/268 461/742/268 463/745/268
f 458/743/268 463/745/268 456/746/268
f 456/746/267 463/745/267 465/747/267
f 456/746/268 465/747/268 454/748/268
f 454/748/267 465/747/267 452/749/267
f 452/749/268 465/747/268 467/750/268
f 452/749/267 467/750/267 450/751/267
f 450/751/268 467/750/268 469/752/268
f 450/751/267 469/752/267 447/753/267
f 447/753/267 469/752/267 393/172/267
f 393/172/268 469/752/268 391/754/268
f 391/754/267 469/752/267 389/174/267
f 389/174/268 469/752/268 471/755/268
f 389/174/267 471/755/267 369/756/267
f 369/756/268 471/755/268 367/719/268
f 367/719/267 471/755/267 473/757/267
f 367/719/268 473/757/268 475/718/268
f 379/758/267 376/179/267 377/180/267
f 376/179/267 379/758/267 373/181/267
f 373/181/268 379/758/268 381/759/268
f 373/181/268 381/759/268 383/760/268
f 373/181/268 383/760/268 371/184/268
f 371/184/267 383/760/267 385/761/267
f 371/184/268 385/761/268 387/186/268
f 371/184/267 387/186/267 369/756/267
f 369/756/268 387/186/268 389/174/268
f 433/762/267 430/763/267 432/764/267
f 430/763/268 433/762/268 435/765/268
f 430/763/268 435/765/268 428/766/268
f 428/766/267 435/765/267 437/767/267
f 428/766/267 437/767/267 426/768/267
f 426/768/268 437/767/268 439/769/268
f 426/768/267 439/769/267 424/123/267
f 424/123/268 439/769/268 441/770/268
f 424/123/267 441/770/267 422/771/267
f 422/771/267 441/770/267 443/772/267
f 422/771/269 443/772/269 419/773/269
f 419/773/267 443/772/267 417/774/267
f 417/774/267 443/772/267 396/775/267
f 396/775/267 443/772/267 393/172/267
f 393/172/269 443/772/269 445/776/269
f 393/172/267 445/776/267 447/753/267
f 407/777/267 404/778/267 405/779/267
f 404/778/267 407/777/267 402/780/267
f 402/780/268 407/777/268 409/781/268
f 402/780/267 409/781/267 400/782/267
f 400/782/267 409/781/267 411/783/267
f 400/782/268 411/783/268 398/784/268
f 398/784/267 411/783/267 413/785/267
f 398/784/268 413/785/268 396/775/268
f 396/775/268 413/785/268 415/786/268
f 396/775/268 415/786/268 417/774/268
f 255/787/270 253/788/270 250/789/270
f 227/790/271 225/791/271 223/792/271
f 199/793/271 203/794/271 201/795/271
f 203/794/271 199/793/271 205/796/271
f 205/796/271 199/793/271 197/797/271
f 205/796/270 197/797/270 207/798/270
f 207/798/271 197/797/271 195/799/271
f 118/800/270 186/801/270 134/802/270
f 186/801/271 118/800/271 188/803/271
f 188/803/271 118/800/271 192/804/271
f 188/803/270 192/804/270 190/805/270
f 192/804/270 118/800/270 195/799/270
f 195/799/271 118/800/271 207/798/271
f 207/798/271 118/800/271 209/806/271
f 209/806/270 118/800/270 210/807/270
f 210/807/271 118/800/271 212/808/271
f 212/808/271 118/800/271 214/809/271
f 214/809/271 118/800/271 216/810/271
f 216/810/271 118/800/271 221/811/271
f 216/810/271 221/811/271 218/812/271
f 221/811/270 118/800/270 223/792/270
f 223/792/271 118/800/271 227/790/271
f 227/790/270 118/800/270 229/813/270
f 229/813/271 118/800/271 231/814/271
f 231/814/271 118/800/271 233/815/271
f 233/815/271 118/800/271 235/160/271
f 235/160/270 118/800/270 237/816/270
f 237/816/271 118/800/271 238/817/271
f 238/817/271 118/800/271 241/818/271
f 241/818/270 118/800/270 243/819/270
f 243/819/271 118/800/271 245/820/271
f 245/820/270 118/800/270 249/821/270
f 245/820/270 249/821/270 247/169/270
f 249/821/271 118/800/271 250/789/271
f 250/789/270 118/800/270 255/787/270
f 255/787/271 118/800/271 257/822/271
f 257/822/270 118/800/270 259/823/270
f 259/823/271 118/800/271 7/190/271
f 7/190/271 118/800/271 2/824/271
f 2/824/271 118/800/271 3/825/271
f 3/825/271 118/800/271 6/188/271
f 6/188/271 118/800/271 10/826/271
f 10/826/271 118/800/271 12/124/271
f 12/124/271 118/800/271 18/827/271
f 18/827/271 118/800/271 75/828/271
f 75/828/271 118/800/271 97/829/271
f 12/124/270 18/827/270 14/830/270
f 18/827/271 75/828/271 20/831/271
f 20/831/270 75/828/270 22/832/270
f 22/832/271 75/828/271 24/833/271
f 24/833/271 75/828/271 46/834/271
f 24/833/271 46/834/271 26/835/271
f 26/835/270 46/834/270 28/836/270
f 28/836/271 46/834/271 30/837/271
f 30/837/271 46/834/271 32/838/271
f 32/838/270 46/834/270 33/839/270
f 33/839/271 46/834/271 36/840/271
f 36/840/270 46/834/270 38/841/270
f 38/841/271 46/834/271 40/842/271
f 40/842/270 46/834/270 42/843/270
f 46/834/270 75/828/270 47/844/270
f 47/844/271 75/828/271 50/845/271
f 50/845/270 75/828/270 74/846/270
f 50/845/271 74/846/271 52/847/271
f 52/847/270 74/846/270 54/848/270
f 54/848/271 74/846/271 56/849/271
f 56/849/271 74/846/271 58/850/271
f 58/850/271 74/846/271 60/851/271
f 60/851/271 74/846/271 61/852/271
f 61/852/270 74/846/270 64/853/270
f 64/853/270 74/846/270 66/854/270
f 75/828/270 97/829/270 78/855/270
f 78/855/271 97/829/271 80/856/271
f 80/856/270 97/829/270 82/857/270
f 82/857/271 97/829/271 84/858/271
f 84/858/271 97/829/271 86/859/271
f 86/859/270 97/829/270 88/860/270
f 88/860/271 97/829/271 89/861/271
f 89/861/271 97/829/271 92/862/271
f 92/862/272 97/829/272 94/863/272
f 74/846/271 68/864/271 66/854/271
f 68/864/271 74/846/271 72/865/271
f 68/864/270 72/865/270 70/866/270
f 44/867/270 42/843/270 46/834/270
f 16/868/271 14/830/271 18/827/271
f 34/869/273 29/870/273 31/871/273
f 29/870/273 34/869/273 35/872/273
f 29/870/273 35/872/273 27/873/273
f 27/873/273 35/872/273 37/874/273
f 27/873/273 37/874/273 25/875/273
f 25/875/273 37/874/273 39/876/273
f 25/875/273 39/876/273 23/877/273
f 23/877/273 39/876/273 41/878/273
f 23/877/273 41/878/273 21/879/273
f 21/879/273 41/878/273 19/880/273
f 5/881/273 4/882/273 1/883/273
f 4/882/273 5/881/273 8/884/273
f 8/884/273 5/881/273 9/885/273
f 8/884/273 9/885/273 258/886/273
f 258/886/273 9/885/273 11/887/273
f 258/886/273 11/887/273 256/888/273
f 256/888/273 11/887/273 13/889/273
f 256/888/273 13/889/273 254/890/273
f 254/890/273 13/889/273 15/891/273
f 254/890/273 15/891/273 252/892/273
f 252/892/273 15/891/273 17/893/273
f 252/892/273 17/893/273 19/880/273
f 252/892/273 19/880/273 41/878/273
f 252/892/273 41/878/273 43/894/273
f 252/892/273 43/894/273 251/895/273
f 251/895/273 43/894/273 248/896/273
f 62/897/273 57/898/273 59/899/273
f 57/898/273 62/897/273 63/900/273
f 57/898/273 63/900/273 55/901/273
f 55/901/273 63/900/273 53/902/273
f 53/902/273 63/900/273 65/903/273
f 53/902/273 65/903/273 51/904/273
f 51/904/273 65/903/273 49/905/273
f 49/905/273 65/903/273 67/906/273
f 49/905/273 67/906/273 48/907/273
f 239/908/273 234/909/273 236/910/273
f 234/909/273 239/908/273 232/911/273
f 232/911/273 239/908/273 240/912/273
f 232/911/273 240/912/273 230/913/273
f 230/913/273 240/912/273 242/914/273
f 230/913/273 242/914/273 244/915/273
f 230/913/273 244/915/273 228/916/273
f 228/916/273 244/915/273 246/917/273
f 228/916/273 246/917/273 226/918/273
f 226/918/273 246/917/273 248/896/273
f 226/918/273 248/896/273 43/894/273
f 226/918/273 43/894/273 45/919/273
f 226/918/273 45/919/273 48/907/273
f 226/918/273 48/907/273 224/920/273
f 224/920/273 48/907/273 67/906/273
f 224/920/273 67/906/273 69/921/273
f 224/920/273 69/921/273 222/922/273
f 222/922/273 69/921/273 220/923/273
f 90/924/273 85/925/273 87/926/273
f 85/925/273 90/924/273 83/927/273
f 83/927/273 90/924/273 91/928/273
f 83/927/273 91/928/273 81/929/273
f 81/929/273 91/928/273 79/930/273
f 79/930/273 91/928/273 77/931/273
f 77/931/273 91/928/273 93/932/273
f 77/931/273 93/932/273 76/933/273
f 76/933/273 93/932/273 198/934/273
f 198/934/273 93/932/273 196/935/273
f 196/935/273 93/932/273 95/936/273
f 196/935/273 95/936/273 194/937/273
f 194/937/273 95/936/273 193/938/273
f 193/938/273 95/936/273 507/939/273
f 492/940/273 496/941/273 494/942/273
f 496/941/273 492/940/273 498/943/273
f 498/943/273 492/940/273 500/944/273
f 500/944/273 492/940/273 489/945/273
f 500/944/273 489/945/273 502/946/273
f 449/947/273 448/948/273 451/949/273
f 470/950/273 474/951/273 472/952/273
f 474/951/273 470/950/273 277/953/273
f 277/953/273 470/950/273 278/954/273
f 278/954/273 470/950/273 468/955/273
f 278/954/273 468/955/273 466/956/273
f 278/954/273 466/956/273 279/957/273
f 279/957/273 466/956/273 464/958/273
f 279/957/273 464/958/273 280/959/273
f 280/959/273 464/958/273 282/960/273
f 280/959/273 282/960/273 281/961/273
f 260/962/273 262/963/273 261/964/273
f 262/963/273 260/962/273 185/965/273
f 262/963/273 185/965/273 187/966/273
f 262/963/273 187/966/273 189/967/273
f 262/963/273 189/967/273 263/968/273
f 263/968/273 189/967/273 191/969/273
f 263/968/273 191/969/273 193/938/273
f 263/968/273 193/938/273 507/939/273
f 263/968/273 507/939/273 505/970/273
f 263/968/273 505/970/273 264/971/273
f 264/971/273 505/970/273 503/972/273
f 264/971/273 503/972/273 502/946/273
f 264/971/273 502/946/273 265/973/273
f 265/973/273 502/946/273 489/945/273
f 265/973/273 489/945/273 487/974/273
f 265/973/273 487/974/273 266/975/273
f 266/975/273 487/974/273 485/976/273
f 266/975/273 485/976/273 267/977/273
f 267/977/273 485/976/273 268/978/273
f 268/978/273 485/976/273 269/979/273
f 269/979/273 485/976/273 483/980/273
f 269/979/273 483/980/273 271/981/273
f 271/981/273 483/980/273 272/982/273
f 272/982/273 483/980/273 481/983/273
f 272/982/273 481/983/273 273/984/273
f 273/984/273 481/983/273 274/985/273
f 274/985/273 481/983/273 275/986/273
f 275/986/273 481/983/273 479/987/273
f 275/986/273 479/987/273 477/988/273
f 275/986/273 477/988/273 276/989/273
f 276/989/273 477/988/273 476/990/273
f 276/989/273 476/990/273 474/951/273
f 276/989/273 474/951/273 277/953/273
f 271/981/273 270/991/273 269/979/273
f 211/992/273 206/993/273 208/994/273
f 206/993/273 211/992/273 204/995/273
f 204/995/273 211/992/273 213/996/273
f 204/995/273 213/996/273 215/997/273
f 204/995/273 215/997/273 217/998/273
f 204/995/273 217/998/273 202/999/273
f 202/999/273 217/998/273 219/1000/273
f 202/999/273 219/1000/273 220/923/273
f 202/999/273 220/923/273 69/921/273
f 202/999/273 69/921/273 71/1001/273
f 202/999/273 71/1001/273 200/1002/273
f 200/1002/273 71/1001/273 73/1003/273
f 200/1002/273 73/1003/273 76/933/273
f 200/1002/273 76/933/273 198/934/273
f 462/1004/273 282/960/273 464/958/273
f 282/960/273 462/1004/273 283/1005/273
f 283/1005/273 462/1004/273 459/1006/273
f 283/1005/273 459/1006/273 284/1007/273
f 284/1007/273 459/1006/273 285/1008/273
f 285/1008/273 459/1006/273 457/1009/273
f 285/1008/273 457/1009/273 286/1010/273
f 286/1010/273 457/1009/273 287/1011/273
f 287/1011/273 457/1009/273 455/1012/273
f 287/1011/273 455/1012/273 453/1013/273
f 287/1011/273 453/1013/273 451/949/273
f 287/1011/273 451/949/273 448/948/273
f 287/1011/273 448/948/273 288/1014/273
f 288/1014/273 448/948/273 446/1015/273
f 288/1014/273 446/1015/273 289/1016/273
f 289/1016/273 446/1015/273 444/1017/273
f 289/1016/273 444/1017/273 442/1018/273
f 289/1016/273 442/1018/273 440/1019/273
f 289/1016/273 440/1019/273 290/1020/273
f 290/1020/273 440/1019/273 296/1021/273
f 296/1021/273 440/1019/273 438/1022/273
f 296/1021/273 438/1022/273 297/1023/273
f 297/1023/273 438/1022/273 436/1024/273
f 297/1023/273 436/1024/273 298/1025/273
f 298/1025/273 436/1024/273 299/1026/273
f 299/1026/273 436/1024/273 420/1027/273
f 420/1027/273 436/1024/273 434/1028/273
f 420/1027/273 434/1028/273 421/1029/273
f 421/1029/273 434/1028/273 423/1030/273
f 423/1030/273 434/1028/273 425/1031/273
f 425/1031/273 434/1028/273 431/1032/273
f 425/1031/273 431/1032/273 427/1033/273
f 427/1033/273 431/1032/273 429/1034/273
f 412/1035/273 310/1036/273 414/1037/273
f 310/1036/273 412/1035/273 311/1038/273
f 311/1038/273 412/1035/273 410/1039/273
f 311/1038/273 410/1039/273 312/1040/273
f 312/1040/273 410/1039/273 313/1041/273
f 313/1041/273 410/1039/273 392/1042/273
f 392/1042/273 410/1039/273 408/1043/273
f 392/1042/273 408/1043/273 394/1044/273
f 394/1044/273 408/1043/273 395/1045/273
f 395/1045/273 408/1043/273 397/1046/273
f 397/1046/273 408/1043/273 406/1047/273
f 397/1046/273 406/1047/273 399/1048/273
f 399/1048/273 406/1047/273 401/1049/273
f 401/1049/273 406/1047/273 403/1050/273
f 392/1042/273 314/1051/273 313/1041/273
f 314/1051/273 392/1042/273 390/1052/273
f 314/1051/273 390/1052/273 388/1053/273
f 314/1051/273 388/1053/273 386/1054/273
f 314/1051/273 386/1054/273 324/1055/273
f 324/1055/273 386/1054/273 325/1056/273
f 325/1056/273 386/1054/273 363/1057/273
f 363/1057/273 386/1054/273 384/1058/273
f 325/1056/273 363/1057/273 326/1059/273
f 363/1057/273 384/1058/273 366/1060/273
f 366/1060/273 384/1058/273 368/1061/273
f 368/1061/273 384/1058/273 382/1062/273
f 368/1061/273 382/1062/273 370/1063/273
f 370/1063/273 382/1062/273 380/1064/273
f 370/1063/273 380/1064/273 372/1065/273
f 372/1065/273 380/1064/273 374/1066/273
f 374/1066/273 380/1064/273 378/1067/273
f 374/1066/273 378/1067/273 375/1068/273
f 363/1057/273 327/1069/273 326/1059/273
f 327/1069/273 363/1057/273 362/1070/273
f 327/1069/273 362/1070/273 360/1071/273
f 327/1069/273 360/1071/273 338/1072/273
f 338/1072/273 360/1071/273 339/1073/273
f 339/1073/273 360/1071/273 358/1074/273
f 339/1073/273 358/1074/273 340/1075/273
f 340/1075/273 358/1074/273 341/1076/273
f 341/1076/273 358/1074/273 356/1077/273
f 341/1076/273 356/1077/273 342/1078/273
f 342/1078/273 356/1077/273 354/1079/273
f 342/1078/273 354/1079/273 344/1080/273
f 344/1080/273 354/1079/273 352/1081/273
f 344/1080/273 352/1081/273 346/1082/273
f 346/1082/273 352/1081/273 350/1083/273
f 346/1082/273 350/1083/273 348/1084/273
f 338/1072/273 328/1085/273 327/1069/273
f 328/1085/273 338/1072/273 337/1086/273
f 328/1085/273 337/1086/273 336/1087/273
f 328/1085/273 336/1087/273 335/1088/273
f 328/1085/273 335/1088/273 329/1089/273
f 329/1089/273 335/1088/273 334/1090/273
f 329/1089/273 334/1090/273 330/1091/273
f 330/1091/273 334/1090/273 333/1092/273
f 330/1091/273 333/1092/273 331/1093/273
f 331/1093/273 333/1092/273 332/1094/273
f 324/1055/273 315/1095/273 314/1051/273
f 315/1095/273 324/1055/273 323/1096/273
f 315/1095/273 323/1096/273 322/1097/273
f 315/1095/273 322/1097/273 316/1098/273
f 316/1098/273 322/1097/273 321/1099/273
f 316/1098/273 321/1099/273 320/1100/273
f 316/1098/273 320/1100/273 317/1101/273
f 317/1101/273 320/1100/273 319/1102/273
f 317/1101/273 319/1102/273 318/1103/273
f 420/1027/273 300/1104/273 299/1026/273
f 300/1104/273 420/1027/273 418/1105/273
f 300/1104/273 418/1105/273 301/1106/273
f 301/1106/273 418/1105/273 416/1107/273
f 301/1106/273 416/1107/273 414/1037/273
f 301/1106/273 414/1037/273 310/1036/273
f 301/1106/273 310/1036/273 302/1108/273
f 302/1108/273 310/1036/273 309/1109/273
f 302/1108/273 309/1109/273 308/1110/273
f 302/1108/273 308/1110/273 303/1111/273
f 303/1111/273 308/1110/273 307/1112/273
f 303/1111/273 307/1112/273 306/1113/273
f 303/1111/273 306/1113/273 305/1114/273
f 303/1111/273 305/1114/273 304/1115/273
f 296/1021/273 291/1116/273 290/1020/273
f 291/1116/273 296/1021/273 295/1117/273
f 291/1116/273 295/1117/273 294/1118/273
f 291/1116/273 294/1118/273 292/1119/273
f 292/1119/273 294/1118/273 293/1120/273
