# Blender 4.5.1 LTS
# www.blender.org
o small-gear
v -11.933296 0.883682 9.623890
v -8.450635 1.394818 0.000732
v -7.626749 0.568170 0.000732
v -12.693976 2.094679 8.548125
v -8.418055 1.579587 0.000732
v -12.665072 2.377036 8.589002
v -9.216126 -0.455943 13.466549
v -10.177210 -0.479772 12.107371
v -10.035013 -0.498306 12.308468
v -10.584268 -0.324869 11.531703
v -8.652250 -7.727055 14.263990
v -10.465050 -7.538785 11.700303
v -9.422349 -7.769568 13.174905
v -8.202496 -7.571464 14.900038
v -8.063878 -7.481114 15.096073
v -11.687072 -6.920003 9.972104
v -7.354183 -6.820206 16.099733
v -11.779263 -6.629130 9.841726
v 0.000000 0.000000 26.500118
v -6.658113 -10.748984 17.084126
v -6.740366 -11.674656 16.967802
v -6.489973 -10.102751 17.321911
v -5.781291 -8.953783 18.324139
v -6.403600 -9.913470 17.444061
v -11.286056 -5.080120 10.539226
v -10.736429 -4.013357 11.316516
v -10.232180 -3.372122 12.029631
v -9.871594 -3.074523 12.539578
v -8.903398 -2.750357 13.908813
v -9.737627 -3.006022 12.729034
v -11.197980 0.097319 10.663784
v -8.677524 3.653903 14.228247
v -7.829947 5.934621 15.426901
v -6.740366 11.674656 16.967802
v -11.674117 3.295848 9.990425
v -8.571841 6.494463 14.377705
v -8.689399 6.617918 14.211454
v -8.978017 7.073724 13.803286
v -9.328509 7.964783 13.307614
v -9.624125 9.368934 12.889551
v -9.744494 11.356857 12.719324
v -9.570662 11.664180 12.965159
v -8.099181 11.905274 15.046147
v -6.920322 11.755980 16.713305
v -10.780566 3.818385 11.254096
v -9.498199 4.001606 13.067637
v -10.079852 4.023608 12.245056
v -9.642522 4.033940 12.863533
v -1.128876 4.997498 0.000732
v -1.290223 5.698524 0.000732
v -1.302933 5.820808 0.000732
v -5.433265 6.621055 0.000732
v -5.477216 5.337623 0.000732
v -5.576990 6.500456 0.000732
v -5.236959 4.480263 0.000732
v -4.305424 6.320873 0.000732
v -4.960597 3.919266 0.000732
v -4.739648 3.621488 0.000732
v -4.651309 3.535984 0.000732
v -4.077099 3.102679 0.000732
v -3.502810 5.935388 0.000732
v -3.763523 -3.476384 0.000732
v -2.756852 -4.289675 0.000732
v -2.998325 5.565808 0.000732
v -2.743438 5.296507 0.000732
v -3.320969 -5.379529 0.000732
v -3.321324 -6.889043 0.000732
v -3.388792 -6.001216 0.000732
v -3.017370 -8.015873 0.000732
v -3.215190 -5.024140 0.000732
v -3.161423 -4.913579 0.000732
v -2.841065 -8.080043 0.000732
v -1.883910 -7.412219 0.000732
v -2.674573 5.194662 0.000732
v -2.336541 4.532342 0.000732
v -1.261542 -6.775471 0.000732
v -0.913885 -6.255636 0.000732
v -7.361125 2.074596 0.000732
v -6.891601 0.065828 0.000732
v -6.498501 2.295208 0.000732
v -6.319293 -0.186279 0.000732
v -5.874482 2.336370 0.000732
v -5.958628 -0.272366 0.000732
v -5.835996 -0.281083 0.000732
v -5.506124 2.293911 0.000732
v -5.117602 -0.243919 0.000732
v -5.387906 2.260160 0.000732
v -4.703227 1.970075 0.000732
v -4.869221 -1.514011 0.000732
v -4.721122 -4.204661 0.000732
v -4.389501 -4.038777 0.000732
v -4.289955 -3.966628 0.000732
v -6.972474 -3.142407 0.000732
v -7.370133 -4.363471 0.000732
v -7.463943 -4.200987 0.000732
v -6.207641 -4.467136 0.000732
v -6.453472 -2.418925 0.000732
v -6.001904 -1.986281 0.000732
v -5.321586 -4.379409 0.000732
v -5.692434 -1.782030 0.000732
v -5.580178 -1.731897 0.000732
v -1.280782 6.190942 0.000732
v -1.131886 6.798333 0.000732
v -0.764832 7.609543 0.000732
v -0.766477 -5.915399 0.000732
v -0.736597 -5.796143 0.000732
v -0.093810 8.564458 0.000732
v -0.648449 -5.082210 0.000732
v 0.645478 -5.058152 0.000732
v 0.093810 8.564458 0.000732
v 0.764832 7.609543 0.000732
v 0.736597 -5.796143 0.000732
v 0.766477 -5.915399 0.000732
v 1.131886 6.798333 0.000732
v 0.913885 -6.255636 0.000732
v 1.123439 4.973875 0.000732
v 1.290223 5.698524 0.000732
v 1.280782 6.190942 0.000732
v 1.302933 5.820808 0.000732
v 2.998325 5.565808 0.000732
v 2.770041 -4.310014 0.000732
v 2.743438 5.296507 0.000732
v 3.745783 -3.459864 0.000732
v 3.502810 5.935388 0.000732
v 4.057749 3.088077 0.000732
v 4.305424 6.320873 0.000732
v 4.651309 3.535984 0.000732
v 5.433265 6.621055 0.000732
v 4.739648 3.621488 0.000732
v 4.960597 3.919266 0.000732
v 5.236959 4.480263 0.000732
v 5.477216 5.337623 0.000732
v 5.576990 6.500456 0.000732
v 5.387906 2.260160 0.000732
v 4.892398 -1.521114 0.000732
v 4.725548 1.979532 0.000732
v 5.093393 -0.242667 0.000732
v 5.835996 -0.281083 0.000732
v 5.506124 2.293911 0.000732
v 5.874482 2.336370 0.000732
v 5.958628 -0.272366 0.000732
v 6.498501 2.295208 0.000732
v 6.319293 -0.186279 0.000732
v 6.891601 0.065828 0.000732
v 7.361125 2.074596 0.000732
v 7.626749 0.568170 0.000732
v 8.418055 1.579587 0.000732
v 8.450635 1.394818 0.000732
v 4.289955 -3.966628 0.000732
v 4.389501 -4.038777 0.000732
v 4.721122 -4.204661 0.000732
v 5.321586 -4.379409 0.000732
v 5.580178 -1.731897 0.000732
v 6.207641 -4.467136 0.000732
v 5.692434 -1.782030 0.000732
v 6.001904 -1.986281 0.000732
v 6.453472 -2.418925 0.000732
v 7.370133 -4.363471 0.000732
v 6.972474 -3.142407 0.000732
v 7.463943 -4.200987 0.000732
v 1.261542 -6.775471 0.000732
v 2.347561 4.553933 0.000732
v 1.883910 -7.412219 0.000732
v 2.841065 -8.080043 0.000732
v 2.674573 5.194662 0.000732
v 3.161423 -4.913579 0.000732
v 3.017370 -8.015873 0.000732
v 3.321324 -6.889043 0.000732
v 3.215190 -5.024140 0.000732
v 3.320969 -5.379529 0.000732
v 3.388792 -6.001216 0.000732
v -5.979836 11.140587 17.084126
v -0.149363 13.581302 9.972104
v 1.243515 12.314071 10.539226
v 0.148636 13.515706 9.841726
v -1.296254 12.832392 11.700303
v 1.892545 11.304698 11.316516
v 2.195747 10.547389 12.029631
v -2.017468 12.044778 13.174905
v 2.273181 10.086313 12.539578
v 2.265523 9.936044 12.729034
v 2.069820 9.085747 13.908813
v -2.365701 11.356595 14.263990
v 7.503135 5.688005 14.228247
v 9.054506 3.813623 15.426901
v -2.455832 10.889302 14.900038
v -2.446896 10.724080 15.096073
v -2.229381 9.779012 16.099733
v -5.504253 10.671857 17.321911
v -4.863558 9.483637 18.324139
v -5.383517 10.502415 17.444061
v 12.925798 3.650269 12.889551
v 14.886807 2.456346 12.965159
v 14.707574 2.760551 12.719324
v 11.561959 4.096335 13.307614
v 14.359861 1.061460 15.046147
v 10.615033 4.238329 13.803286
v 10.075984 4.216281 14.211454
v 9.910290 4.176201 14.377705
v 13.641138 0.115185 16.713305
v 13.480731 0.000000 16.967802
v 6.731939 9.892697 9.623890
v 8.391110 9.779756 8.589002
v 8.161034 9.945966 8.548125
v 8.691346 8.462158 9.990425
v 5.683271 9.649075 10.663784
v 8.697101 7.427052 11.254096
v 5.010789 9.328680 11.531703
v 8.524473 6.717603 12.245056
v 4.673110 9.053608 12.107371
v 4.585961 8.939729 12.308468
v 8.314756 6.333699 12.863533
v 4.213204 8.209371 13.466549
v 8.214592 6.224878 13.067637
v -1.224559 -9.748243 15.426902
v -1.386585 -10.834199 14.211454
v -1.338449 -10.670664 14.377705
v 11.836434 -6.661299 9.972104
v 10.042541 -7.233951 10.539226
v 11.630626 -6.886576 9.841726
v 11.761304 -5.293607 11.700303
v 8.843883 -7.291342 11.316516
v 8.036433 -7.175267 12.029631
v 11.439818 -4.275210 13.174905
v 7.598412 -7.011789 12.539578
v 6.833578 -6.335390 13.908813
v 11.017951 -3.629541 14.263990
v 1.174389 -9.341908 14.228247
v 10.658328 -3.317838 14.900038
v 10.510774 -3.242966 15.096073
v 9.583563 -2.958806 16.099733
v 12.637950 -0.391604 17.084126
v 11.994226 -0.569106 17.321911
v 10.644849 -0.529854 18.324139
v 11.787117 -0.588945 17.444061
v -3.301673 -13.019204 12.889551
v -5.316145 -14.120526 12.965159
v -4.963080 -14.117408 12.719324
v -2.233449 -12.061117 13.307614
v -6.260679 -12.966734 15.046147
v -1.637016 -11.312052 13.803286
v -6.720816 -11.871165 16.713305
v 5.201357 -10.776379 9.623890
v 4.273962 -12.156793 8.589002
v 4.532943 -12.040646 8.548125
v 2.982770 -11.758006 9.990425
v 5.514709 -9.746394 10.663784
v 2.083465 -11.245437 11.254096
v 5.573479 -9.003811 11.531703
v 1.555379 -10.741212 12.245056
v 5.504100 -8.573836 12.107371
v 5.002921 -7.753427 13.466549
v 1.327767 -10.367639 12.863533
v 1.283607 -10.226485 13.067637
v 5.449052 -8.441423 12.308468
v 7.472105 -6.930022 12.729034
vn -0.6796 -0.6773 -0.2819
vn -0.8797 0.1551 -0.4494
vn -0.8165 -0.0000 0.5774
vn -0.8165 -0.0000 0.5773
vn -0.8165 0.0001 0.5773
vn -0.0000 -0.0000 -1.0000
vn -0.5504 -0.8054 -0.2199
vn -0.4069 0.8689 -0.2819
vn -0.2417 0.9451 -0.2199
vn -0.0650 0.9853 -0.1581
vn 0.1140 0.9887 -0.0971
vn 0.2743 0.9607 -0.0418
vn 0.3901 0.9208 -0.0000
vn -0.8379 0.4632 -0.2889
vn -0.6024 -0.7982 -0.0000
vn -0.6949 -0.7179 -0.0418
vn -0.7993 -0.5931 -0.0971
vn -0.8858 -0.4364 -0.1581
vn -0.9393 -0.2632 -0.2199
vn -0.9559 -0.0820 -0.2819
vn -0.5742 0.6843 -0.4494
vn 0.2468 0.9272 -0.2819
vn 0.4223 0.8794 -0.2199
vn 0.5835 0.7965 -0.1581
vn 0.4082 0.7071 0.5774
vn 0.4082 0.7071 0.5773
vn 0.4083 0.7071 0.5773
vn 0.4083 -0.7071 0.5773
vn 0.4082 -0.7071 0.5774
vn 0.4082 -0.7071 0.5773
vn 0.4083 -0.7071 0.5774
vn -0.9816 0.1071 -0.1581
vn -0.9539 0.2839 -0.0971
vn -0.8985 0.4370 -0.0418
vn -0.8985 0.4369 -0.0418
vn -0.8390 0.5441 -0.0000
vn -0.6016 -0.7447 -0.2889
vn 0.6815 -0.7318 -0.0000
vn 0.5863 -0.8090 -0.0418
vn 0.4453 -0.8901 -0.0971
vn 0.2759 -0.9481 -0.1581
vn 0.0961 -0.9708 -0.2199
vn -0.0852 -0.9556 -0.2819
vn -0.7736 -0.4467 -0.4494
vn -0.8702 0.4040 -0.2819
vn -0.6831 0.7130 -0.1581
vn -0.5482 0.8307 -0.0971
vn -0.4074 0.9123 -0.0418
vn -0.2930 0.9561 -0.0000
vn -0.9396 -0.1837 -0.2889
vn 0.0517 -0.9987 -0.0000
vn -0.0708 -0.9966 -0.0418
vn -0.2311 -0.9681 -0.0971
vn -0.3981 -0.9036 -0.1581
vn -0.9727 -0.0739 -0.2199
vn -0.9263 -0.2499 -0.2819
vn -0.3055 -0.8394 -0.4494
vn 0.5490 -0.7868 -0.2819
vn 0.6976 -0.6819 -0.2199
vn 0.8208 -0.5489 -0.1581
vn 0.9132 -0.3957 -0.0971
vn 0.9692 -0.2428 -0.0418
vn 0.9925 -0.1225 -0.0000
vn 0.0178 -0.9572 -0.2889
vn -0.9925 -0.1225 -0.0000
vn -0.9692 -0.2428 -0.0418
vn -0.9132 -0.3957 -0.0971
vn -0.8208 -0.5489 -0.1581
vn -0.6976 -0.6819 -0.2199
vn -0.5490 -0.7868 -0.2819
vn 0.3055 -0.8394 -0.4494
vn 0.9263 -0.2499 -0.2819
vn 0.9727 -0.0739 -0.2199
vn 0.9816 0.1071 -0.1581
vn 0.9539 0.2839 -0.0971
vn 0.8985 0.4370 -0.0418
vn 0.8390 0.5441 -0.0000
vn 0.6289 -0.7218 -0.2889
vn -0.6815 -0.7318 -0.0000
vn -0.5863 -0.8090 -0.0418
vn -0.4453 -0.8901 -0.0971
vn -0.2759 -0.9481 -0.1581
vn -0.0961 -0.9708 -0.2199
vn 0.0852 -0.9556 -0.2819
vn 0.7736 -0.4467 -0.4494
vn 0.8702 0.4040 -0.2819
vn 0.7927 0.5686 -0.2199
vn 0.6831 0.7130 -0.1581
vn 0.5482 0.8307 -0.0971
vn 0.4074 0.9123 -0.0418
vn 0.2930 0.9561 -0.0000
vn -0.0517 -0.9987 -0.0000
vn 0.0708 -0.9966 -0.0418
vn 0.2311 -0.9681 -0.0971
vn 0.3981 -0.9036 -0.1581
vn 0.5504 -0.8054 -0.2199
vn 0.6796 -0.6773 -0.2819
vn 0.8797 0.1551 -0.4494
vn 0.4069 0.8689 -0.2819
vn 0.2417 0.9451 -0.2199
vn 0.0650 0.9853 -0.1581
vn -0.1140 0.9887 -0.0971
vn -0.2743 0.9607 -0.0418
vn -0.3901 0.9208 -0.0000
vn 0.8201 0.4940 -0.2889
vn 0.6024 -0.7982 -0.0000
vn 0.6949 -0.7179 -0.0418
vn 0.7993 -0.5931 -0.0971
vn 0.8858 -0.4364 -0.1581
vn 0.9393 -0.2632 -0.2199
vn 0.9559 -0.0820 -0.2819
vn 0.5742 0.6843 -0.4494
vn -0.2468 0.9272 -0.2819
vn -0.4223 0.8794 -0.2199
vn -0.5835 0.7965 -0.1581
vn -0.7228 0.6842 -0.0971
vn -0.8277 0.5597 -0.0418
vn -0.8907 0.4546 -0.0000
vn 0.3107 0.9056 -0.2889
vn 0.9745 -0.2243 -0.0000
vn 0.9938 -0.1033 -0.0418
vn 0.9935 0.0595 -0.0971
vn 0.9590 0.2351 -0.1581
vn 0.8888 0.4022 -0.2199
vn 0.8888 0.4021 -0.2199
vn 0.7850 0.5516 -0.2819
vn -0.0000 0.8933 -0.4494
vn -0.7850 0.5516 -0.2819
vn -0.8888 0.4022 -0.2199
vn -0.8888 0.4021 -0.2199
vn -0.9590 0.2351 -0.1581
vn -0.9935 0.0595 -0.0971
vn -0.9938 -0.1033 -0.0418
vn -0.9745 -0.2243 -0.0000
vn -0.3441 0.8934 -0.2889
vn 0.8907 0.4546 -0.0000
vn 0.8277 0.5597 -0.0418
vn 0.9458 -0.1487 -0.2889
vn 0.7228 0.6842 -0.0971
vn -0.7927 0.5686 -0.2199
vt 0.600346 0.430626
vt 0.583932 0.653823
vt 0.558463 0.657407
vt 0.634061 0.450574
vt 0.586011 0.654221
vt 0.637440 0.450203
vt 0.380434 0.549089
vt 0.320646 0.607190
vt 0.328711 0.597812
vt 0.301166 0.637640
vt 0.157551 0.257040
vt 0.053037 0.374887
vt 0.108815 0.302766
vt 0.190644 0.234966
vt 0.202345 0.229663
vt -0.000000 0.471746
vt 0.269274 0.209539
vt 0.004645 0.487700
vt 0.961813 -0.000000
vt 0.172849 0.027733
vt 0.135027 -0.000000
vt 0.206044 0.040303
vt 0.290192 0.037524
vt 0.218043 0.041708
vt 0.089744 0.512300
vt 0.161227 0.516365
vt 0.214858 0.508144
vt 0.247511 0.496567
vt 0.318370 0.448665
vt 0.258153 0.490776
vt 0.278476 0.690229
vt 0.558995 0.661584
vt 0.691736 0.690360
vt 0.961813 0.826786
vt 0.261223 0.763171
vt 0.257450 0.852705
vt 0.269221 0.860931
vt 0.362532 0.832689
vt 0.666059 0.755685
vt 0.663221 0.767266
vt 0.661659 0.801107
vt 0.671715 0.854155
vt 0.703305 0.922006
vt 0.766314 0.999779
vt 0.787857 1.000000
vt 0.886642 0.918290
vt 0.953656 0.840703
vt 0.435837 0.796389
vt 0.520974 0.724228
vt 0.486080 0.760681
vt 0.513267 0.734225
vt 0.712422 0.722677
vt 0.741429 0.753824
vt 0.745698 0.759714
vt 0.981011 0.678529
vt 0.945295 0.611466
vt 0.984808 0.668098
vt 0.907620 0.574642
vt 0.914340 0.696513
vt 0.876863 0.554072
vt 0.856732 0.545350
vt 0.849676 0.543582
vt 0.807435 0.538367
vt 0.861810 0.700505
vt 0.596735 0.210531
vt 0.521093 0.198638
vt 0.825026 0.696492
vt 0.803999 0.690234
vt 0.517756 0.126105
vt 0.473118 0.048747
vt 0.502840 0.092244
vt 0.424207 -0.000000
vt 0.522850 0.147445
vt 0.523366 0.154701
vt 0.413275 0.001928
vt 0.383987 0.064463
vt 0.797457 0.687052
vt 0.760543 0.663115
vt 0.370934 0.115502
vt 0.368498 0.152424
vt 0.984808 0.331902
vt 0.914340 0.303487
vt 0.981011 0.321471
vt 0.945295 0.388534
vt 0.861810 0.299495
vt 0.907620 0.425358
vt 0.825026 0.303508
vt 0.876863 0.445928
vt 0.803999 0.309766
vt 0.797457 0.312948
vt 0.856732 0.454650
vt 0.761746 0.336105
vt 0.849676 0.456418
vt 0.806011 0.461809
vt 0.711445 0.278373
vt 0.624257 0.144884
vt 0.612172 0.163195
vt 0.609206 0.169837
vt 0.771042 0.132711
vt 0.755295 0.058380
vt 0.764909 0.063930
vt 0.692662 0.087459
vt 0.765852 0.185137
vt 0.755512 0.220665
vt 0.649856 0.118166
vt 0.745698 0.240286
vt 0.741429 0.246176
vt 0.755512 0.779335
vt 0.765852 0.814863
vt 0.771042 0.867288
vt 0.371010 0.174218
vt 0.373007 0.181213
vt 0.764909 0.936070
vt 0.389611 0.220403
vt 0.324022 0.259914
vt 0.755295 0.941620
vt 0.692662 0.912541
vt 0.297521 0.224795
vt 0.292462 0.219569
vt 0.649856 0.881834
vt 0.274843 0.206496
vt 0.596314 0.788098
vt 0.609206 0.830163
vt 0.624257 0.855116
vt 0.612172 0.836805
vt 0.517756 0.873895
vt 0.237291 0.361101
vt 0.522850 0.852555
vt 0.212445 0.433529
vt 0.502840 0.907756
vt 0.390171 0.778277
vt 0.473118 0.951253
vt 0.373007 0.818787
vt 0.424207 1.000000
vt 0.371010 0.825782
vt 0.368498 0.847576
vt 0.370934 0.884498
vt 0.383987 0.935537
vt 0.413275 0.998072
vt 0.297521 0.775205
vt 0.211047 0.566792
vt 0.323158 0.741230
vt 0.238569 0.638246
vt 0.199381 0.658247
vt 0.292462 0.780431
vt 0.274843 0.793504
vt 0.193355 0.662321
vt 0.241650 0.809856
vt 0.177422 0.677402
vt 0.155555 0.707251
vt 0.190923 0.824071
vt 0.132747 0.754740
vt 0.122121 0.829975
vt 0.114986 0.821471
vt 0.169569 0.423661
vt 0.162334 0.422909
vt 0.140434 0.424220
vt 0.104497 0.433029
vt 0.169569 0.576339
vt 0.056500 0.454747
vt 0.162334 0.577091
vt 0.140434 0.575780
vt 0.104497 0.566970
vt 0.000000 0.494449
vt 0.056500 0.545253
vt 0.000000 0.505550
vt 0.241650 0.190144
vt 0.521167 0.802794
vt 0.190923 0.175929
vt 0.122121 0.170025
vt 0.523365 0.845299
vt 0.199381 0.341753
vt 0.114986 0.178529
vt 0.132747 0.245260
vt 0.193355 0.337679
vt 0.177422 0.322598
vt 0.155555 0.292749
vt 0.573208 0.411797
vt 0.539076 0.660883
vt 0.761426 0.465443
vt 0.805303 0.660010
vt 0.792029 0.660227
vt 0.777581 0.433312
vt 0.818234 0.661077
vt 0.795648 0.406416
vt 0.828943 0.662653
vt 0.812155 0.386712
vt 0.836028 0.664035
vt 0.823804 0.375213
vt 0.838532 0.664616
vt 0.828057 0.371661
vt 0.854116 0.668619
vt 0.854116 0.352574
vt 0.343200 0.437367
vt 0.411823 0.757396
vt 0.404973 0.754521
vt 0.350931 0.416077
vt 0.425972 0.750128
vt 0.379643 0.426669
vt 0.428410 0.748950
vt 0.384675 0.428239
vt 0.435674 0.745741
vt 0.399148 0.431611
vt 0.447375 0.741134
vt 0.421409 0.434644
vt 0.462679 0.735966
vt 0.449243 0.435148
vt 0.480232 0.731281
vt 0.480232 0.430898
vt 0.000000 0.098553
vt 0.073689 0.400661
vt 0.072526 0.401140
vt 0.000656 0.091858
vt 0.097671 0.404290
vt 0.034343 0.049161
vt 0.116786 0.407890
vt 0.065414 0.016983
vt 0.091535 0.014386
vt 0.130318 0.410907
vt 0.070855 0.012417
vt 0.000000 0.471746
vt 0.089744 0.512301
vt 0.004645 0.487700
vt 0.053037 0.374888
vt 0.161227 0.516365
vt 0.214858 0.508145
vt 0.108815 0.302766
vt 0.247511 0.496567
vt 0.258153 0.490777
vt 0.318370 0.448665
vt 0.157551 0.257040
vt 0.558994 0.661584
vt 0.691736 0.690360
vt 0.190644 0.234966
vt 0.202345 0.229663
vt 0.269274 0.209540
vt 0.961813 0.000000
vt 0.172849 0.027733
vt 0.135027 0.000000
vt 0.206044 0.040304
vt 0.290192 0.037524
vt 0.218043 0.041709
vt 0.703305 0.922006
vt 0.787857 1.000000
vt 0.766313 0.999779
vt 0.671715 0.854155
vt 0.886641 0.918290
vt 0.661659 0.801107
vt 0.663220 0.767266
vt 0.666059 0.755685
vt 0.953655 0.840703
vt 0.961813 0.826786
vt 0.261223 0.763171
vt 0.269221 0.860931
vt 0.257450 0.852705
vt 0.362532 0.832689
vt 0.278476 0.690229
vt 0.435837 0.796389
vt 0.301166 0.637640
vt 0.486079 0.760681
vt 0.320646 0.607190
vt 0.328711 0.597812
vt 0.513267 0.734225
vt 0.380434 0.549089
vt 0.520974 0.724228
vt 0.691736 0.690360
vt 0.663220 0.767266
vt 0.666059 0.755684
vt 0.000000 0.471746
vt 0.089744 0.512300
vt 0.004646 0.487700
vt 0.053037 0.374887
vt 0.161227 0.516365
vt 0.214858 0.508144
vt 0.108815 0.302766
vt 0.247511 0.496567
vt 0.318370 0.448665
vt 0.157551 0.257040
vt 0.558995 0.661584
vt 0.190644 0.234966
vt 0.202345 0.229663
vt 0.269274 0.209539
vt 0.961813 -0.000000
vt 0.172849 0.027733
vt 0.135027 -0.000000
vt 0.206044 0.040303
vt 0.290192 0.037524
vt 0.218043 0.041708
vt 0.703305 0.922006
vt 0.787857 1.000000
vt 0.766314 0.999779
vt 0.671715 0.854155
vt 0.886641 0.918290
vt 0.661659 0.801107
vt 0.953656 0.840703
vt 0.961813 0.826786
vt 0.261223 0.763171
vt 0.269221 0.860931
vt 0.257450 0.852705
vt 0.362532 0.832689
vt 0.278476 0.690229
vt 0.435837 0.796389
vt 0.301166 0.637640
vt 0.486080 0.760681
vt 0.320646 0.607189
vt 0.380434 0.549089
vt 0.513267 0.734225
vt 0.520974 0.724228
vt 0.328711 0.597812
vt 0.258153 0.490776
vt 0.403856 0.017871
vt 0.441278 0.408959
vt 0.401021 0.022822
vt 0.415234 0.018324
vt 0.448776 0.410979
vt 0.421121 0.015676
vt 0.451908 0.412368
vt 0.422156 0.013906
vt 0.452523 0.412873
vt 0.423978 0.000000
vt 0.454250 0.416077
vt 0.482935 0.414889
vt 0.482935 0.048221
vt 0.106485 0.418113
vt 0.121573 0.772069
vt 0.106485 0.775992
vt 0.133241 0.433467
vt 0.124081 0.771480
vt 0.137818 0.436754
vt 0.131189 0.770069
vt 0.150361 0.448439
vt 0.141954 0.768449
vt 0.168084 0.470108
vt 0.868398 0.000000
vt 0.882315 0.302347
vt 0.868398 0.306181
vt 0.891985 0.027773
vt 0.903644 0.297837
vt 0.924517 0.061152
vt 0.930398 0.064251
vt 0.907529 0.297840
vt 0.942515 0.055065
vt 0.913984 0.302373
vt 0.170913 0.765082
vt 0.184904 0.998098
vt 0.181945 1.000000
vt 0.175291 0.747016
vt 0.188047 0.997310
vt 0.180367 0.734998
vt 0.189477 0.997158
vt 0.182761 0.730768
vt 0.199734 0.996754
vt 0.199734 0.705383
vt 0.522292 0.362890
vt 0.482935 0.670211
vt 0.482935 0.352574
vt 0.505101 0.670332
vt 0.516552 0.666314
vt 0.539485 0.382779
vt 0.518721 0.665646
vt 0.542838 0.386263
vt 0.525956 0.663752
vt 0.553881 0.396357
vt 0.427737 0.406650
vt 0.379398 0.056968
vt 0.406790 0.404482
vt 0.349008 0.101496
vt 0.343200 0.108001
vt 0.402857 0.404914
vt 0.268032 0.383181
vt 0.250586 0.684763
vt 0.226716 0.689392
vt 0.309386 0.379099
vt 0.235413 0.381111
vt 0.207748 0.693784
vt 0.212077 0.375966
vt 0.194357 0.697357
vt 0.198369 0.370763
vt 0.186639 0.699690
vt 0.194019 0.368428
vt 0.184219 0.700505
vt 0.170912 0.352926
vt 0.170912 0.705383
vt 0.593006 0.027882
vt 0.633848 0.352294
vt 0.611400 0.352574
vt 0.633848 0.000000
vt 0.600125 0.348529
vt 0.575653 0.047605
vt 0.598037 0.347877
vt 0.572351 0.051156
vt 0.590984 0.346024
vt 0.561406 0.062223
vt 0.578055 0.343207
vt 0.542230 0.080492
vt 0.558761 0.339779
vt 0.515512 0.104531
vt 0.482935 0.132156
vt 0.533170 0.336218
vt 0.930558 0.680947
vt 0.908245 0.884301
vt 0.904820 0.884343
vt 0.935853 0.679910
vt 0.896189 0.663029
vt 0.880888 0.889231
vt 0.870691 0.645292
vt 0.864264 0.893337
vt 0.854116 0.630235
vt 0.854116 0.896384
vt 0.609429 0.961648
vt 0.613662 0.694322
vt 0.624099 0.705471
vt 0.602931 0.962602
vt 0.609740 0.690640
vt 0.600563 0.963050
vt 0.586007 0.670333
vt 0.586007 0.966200
vt 0.761426 0.668619
vt 0.789287 0.984720
vt 0.761426 0.984612
vt 0.810895 0.678859
vt 0.842512 0.018279
vt 0.868398 0.313203
vt 0.852754 0.308193
vt 0.868398 0.000000
vt 0.838108 0.021257
vt 0.850143 0.307427
vt 0.825233 0.029453
vt 0.842347 0.305419
vt 0.805201 0.041268
vt 0.829760 0.302701
vt 0.780053 0.054727
vt 0.813255 0.299933
vt 0.752156 0.067736
vt 0.794261 0.297901
vt 0.634118 0.904947
vt 0.629971 0.670332
vt 0.636541 0.673585
vt 0.629971 0.904830
vt 0.716041 0.699917
vt 0.731479 0.426909
vt 0.761426 0.461472
vt 0.693730 0.703908
vt 0.703619 0.399187
vt 0.675430 0.707942
vt 0.681390 0.379979
vt 0.662134 0.711362
vt 0.667394 0.369540
vt 0.654252 0.713663
vt 0.662751 0.366575
vt 0.651713 0.714487
vt 0.637440 0.352574
vt 0.637440 0.719491
vt 0.313438 0.368852
vt 0.339017 0.743879
vt 0.325535 0.742376
vt 0.339017 0.352926
vt 0.309386 0.371171
vt 0.323496 0.742230
vt 0.094682 0.420549
vt 0.106485 0.818219
vt 0.100626 0.816198
vt 0.106485 0.419143
vt 0.077052 0.418113
vt 0.089209 0.812883
vt 0.039801 0.453095
vt 0.071268 0.808459
vt 0.072063 0.422532
vt 0.046322 0.803257
vt 0.000000 0.493039
vt 0.340211 0.316935
vt 0.343200 0.002717
vt 0.343200 0.316482
vt 0.337952 0.009463
vt 0.295858 0.020993
vt 0.316385 0.325797
vt 0.264747 0.023705
vt 0.299379 0.332835
vt 0.243938 0.021225
vt 0.288652 0.337799
vt 0.232578 0.017136
vt 0.283208 0.340659
vt 0.229243 0.015013
vt 0.281729 0.341556
vt 0.212754 0.000000
vt 0.274659 0.346480
vt 0.249017 0.352926
vt 0.170913 0.038650
vt 0.727412 0.017808
vt 0.752156 0.324059
vt 0.737358 0.318900
vt 0.752156 0.000000
vt 0.723079 0.021063
vt 0.734813 0.318079
vt 0.726926 0.315791
vt 0.710020 0.031392
vt 0.713637 0.312399
vt 0.689218 0.048750
vt 0.695373 0.308412
vt 0.662860 0.072003
vt 0.673140 0.304490
vt 0.633848 0.099247
vt 0.579674 0.738427
vt 0.567676 0.938970
vt 0.563533 0.938712
vt 0.586008 0.737857
vt 0.555632 0.717550
vt 0.546941 0.941469
vt 0.540871 0.697632
vt 0.537329 0.944088
vt 0.533718 0.681168
vt 0.532912 0.946223
vt 0.531735 0.670333
vt 0.531735 0.947617
vt 0.629584 0.698401
vt 0.627708 0.945004
vt 0.627463 0.944476
vt 0.629971 0.703329
vt 0.624099 0.670333
vt 0.624099 0.941568
vt 0.482935 0.670333
vt 0.510420 0.988514
vt 0.482935 0.986924
vt 0.531735 0.683223
vt 0.835321 0.970703
vt 0.850338 0.668619
vt 0.850338 0.973897
vt 0.825490 0.689229
vt 0.832960 0.970266
vt 0.821517 0.692657
vt 0.826493 0.969345
vt 0.810895 0.702368
vt 0.930354 0.627174
vt 0.940563 0.352574
vt 0.940563 0.630235
vt 0.923493 0.363916
vt 0.913664 0.623045
vt 0.896829 0.375287
vt 0.889677 0.618129
vt 0.859936 0.383895
vt 0.854116 0.380721
vt 0.886268 0.618084
vt 0.998641 0.097821
vt 0.980842 0.348954
vt 0.978081 0.344326
vt 1.000000 0.141602
vt 0.991208 0.062230
vt 0.972457 0.341790
vt 0.981223 0.037210
vt 0.966212 0.340756
vt 0.972631 0.023375
vt 0.961298 0.340597
vt 0.969088 0.019363
vt 0.959351 0.340683
vt 0.946761 0.000000
vt 0.946761 0.341779
vt 0.137405 0.000000
vt 0.170912 0.417340
vt 0.154609 0.418113
vt 0.170912 0.049269
vt 0.140599 0.413636
vt 0.111650 0.011588
vt 0.138139 0.412920
vt 0.106862 0.012951
vt 0.966456 0.772084
vt 0.940563 0.352574
vt 0.990465 0.406575
vt 0.940563 0.770382
vt 0.946761 0.043257
vt 0.915265 0.306220
s 0
f 1/1/1 2/2/1 3/3/1
f 2/2/1 1/1/1 4/4/1
f 4/4/2 5/5/2 2/2/2
f 5/5/2 4/4/2 6/6/2
f 7/7/3 8/8/3 9/9/3
f 8/8/4 7/7/4 10/10/4
f 11/11/4 12/12/4 13/13/4
f 12/12/3 11/11/3 14/14/3
f 12/12/4 14/14/4 15/15/4
f 12/12/4 15/15/4 16/16/4
f 16/16/3 15/15/3 17/17/3
f 16/16/3 17/17/3 18/18/3
f 19/19/3 20/20/3 21/21/3
f 20/20/3 19/19/3 22/22/3
f 22/22/4 19/19/4 23/23/4
f 22/22/3 23/23/3 24/24/3
f 23/23/3 19/19/3 17/17/3
f 17/17/4 19/19/4 18/18/4
f 18/18/3 19/19/3 25/25/3
f 25/25/3 19/19/3 26/26/3
f 26/26/4 19/19/4 27/27/4
f 27/27/3 19/19/3 28/28/3
f 28/28/5 19/19/5 29/29/5
f 28/28/4 29/29/4 30/30/4
f 29/29/3 19/19/3 7/7/3
f 7/7/3 19/19/3 10/10/3
f 10/10/3 19/19/3 31/31/3
f 31/31/3 19/19/3 32/32/3
f 32/32/3 19/19/3 33/33/3
f 33/33/3 19/19/3 34/34/3
f 31/31/3 32/32/3 1/35/3
f 1/35/4 32/32/4 4/36/4
f 4/36/3 32/32/3 6/37/3
f 6/37/3 32/32/3 35/38/3
f 33/33/3 34/34/3 36/39/3
f 36/39/3 34/34/3 37/40/3
f 37/40/3 34/34/3 38/41/3
f 38/41/3 34/34/3 39/42/3
f 39/42/3 34/34/3 40/43/3
f 40/43/4 34/34/4 41/44/4
f 41/44/3 34/34/3 42/45/3
f 42/45/4 34/34/4 43/46/4
f 43/46/3 34/34/3 44/47/3
f 32/32/3 45/48/3 35/38/3
f 45/48/4 32/32/4 46/49/4
f 45/48/3 46/49/3 47/50/3
f 47/50/5 46/49/5 48/51/5
f 49/52/6 50/53/6 51/54/6
f 52/55/6 53/56/6 54/57/6
f 53/56/6 52/55/6 55/58/6
f 55/58/6 52/55/6 56/59/6
f 55/58/6 56/59/6 57/60/6
f 57/60/6 56/59/6 58/61/6
f 58/61/6 56/59/6 59/62/6
f 59/62/6 56/59/6 60/63/6
f 60/63/6 56/59/6 61/64/6
f 60/63/6 61/64/6 62/65/6
f 62/65/6 61/64/6 63/66/6
f 63/66/6 61/64/6 64/67/6
f 63/66/6 64/67/6 65/68/6
f 66/69/6 67/70/6 68/71/6
f 67/70/6 66/69/6 69/72/6
f 69/72/6 66/69/6 70/73/6
f 69/72/6 70/73/6 71/74/6
f 69/72/6 71/74/6 63/66/6
f 69/72/6 63/66/6 72/75/6
f 72/75/6 63/66/6 73/76/6
f 73/76/6 63/66/6 65/68/6
f 73/76/6 65/68/6 74/77/6
f 73/76/6 74/77/6 75/78/6
f 73/76/6 75/78/6 49/52/6
f 73/76/6 49/52/6 76/79/6
f 76/79/6 49/52/6 77/80/6
f 5/81/6 3/82/6 2/83/6
f 3/82/6 5/81/6 78/84/6
f 3/82/6 78/84/6 79/85/6
f 79/85/6 78/84/6 80/86/6
f 79/85/6 80/86/6 81/87/6
f 81/87/6 80/86/6 82/88/6
f 81/87/6 82/88/6 83/89/6
f 83/89/6 82/88/6 84/90/6
f 84/90/6 82/88/6 85/91/6
f 84/90/6 85/91/6 86/92/6
f 86/92/6 85/91/6 87/93/6
f 86/92/6 87/93/6 88/94/6
f 86/92/6 88/94/6 89/95/6
f 89/95/6 88/94/6 90/96/6
f 90/96/6 88/94/6 91/97/6
f 91/97/6 88/94/6 60/63/6
f 91/97/6 60/63/6 92/98/6
f 92/98/6 60/63/6 62/65/6
f 93/99/6 94/100/6 95/101/6
f 94/100/6 93/99/6 96/102/6
f 96/102/6 93/99/6 97/103/6
f 96/102/6 97/103/6 98/104/6
f 96/102/6 98/104/6 99/105/6
f 99/105/6 98/104/6 100/106/6
f 99/105/6 100/106/6 101/107/6
f 99/105/6 101/107/6 89/95/6
f 99/105/6 89/95/6 90/96/6
f 102/108/6 49/52/6 51/54/6
f 49/52/6 102/108/6 103/109/6
f 49/52/6 103/109/6 104/110/6
f 49/52/6 104/110/6 77/80/6
f 77/80/6 104/110/6 105/111/6
f 105/111/6 104/110/6 106/112/6
f 106/112/6 104/110/6 107/113/6
f 106/112/6 107/113/6 108/114/6
f 108/114/6 107/113/6 109/115/6
f 109/115/6 107/113/6 110/116/6
f 109/115/6 110/116/6 111/117/6
f 109/115/6 111/117/6 112/118/6
f 112/118/6 111/117/6 113/119/6
f 113/119/6 111/117/6 114/120/6
f 113/119/6 114/120/6 115/121/6
f 115/121/6 114/120/6 116/122/6
f 116/122/6 114/120/6 117/123/6
f 117/123/6 114/120/6 118/124/6
f 117/123/6 118/124/6 119/125/6
f 120/126/6 121/127/6 122/128/6
f 121/127/6 120/126/6 123/129/6
f 123/129/6 120/126/6 124/130/6
f 123/129/6 124/130/6 125/131/6
f 125/131/6 124/130/6 126/132/6
f 125/131/6 126/132/6 127/133/6
f 127/133/6 126/132/6 128/134/6
f 127/133/6 128/134/6 129/135/6
f 129/135/6 128/134/6 130/136/6
f 130/136/6 128/134/6 131/137/6
f 131/137/6 128/134/6 132/138/6
f 132/138/6 128/134/6 133/139/6
f 134/140/6 135/141/6 136/142/6
f 135/141/6 134/140/6 137/143/6
f 137/143/6 134/140/6 138/144/6
f 138/144/6 134/140/6 139/145/6
f 138/144/6 139/145/6 140/146/6
f 138/144/6 140/146/6 141/147/6
f 141/147/6 140/146/6 142/148/6
f 141/147/6 142/148/6 143/149/6
f 143/149/6 142/148/6 144/150/6
f 144/150/6 142/148/6 145/151/6
f 144/150/6 145/151/6 146/152/6
f 146/152/6 145/151/6 147/153/6
f 146/152/6 147/153/6 148/154/6
f 125/131/6 149/155/6 123/129/6
f 149/155/6 125/131/6 136/142/6
f 149/155/6 136/142/6 150/156/6
f 150/156/6 136/142/6 151/157/6
f 151/157/6 136/142/6 135/141/6
f 151/157/6 135/141/6 152/158/6
f 152/158/6 135/141/6 153/159/6
f 152/158/6 153/159/6 154/160/6
f 154/160/6 153/159/6 155/161/6
f 154/160/6 155/161/6 156/162/6
f 154/160/6 156/162/6 157/163/6
f 154/160/6 157/163/6 158/164/6
f 158/164/6 157/163/6 159/165/6
f 158/164/6 159/165/6 160/166/6
f 116/122/6 161/167/6 115/121/6
f 161/167/6 116/122/6 162/168/6
f 161/167/6 162/168/6 163/169/6
f 163/169/6 162/168/6 164/170/6
f 164/170/6 162/168/6 121/127/6
f 121/127/6 162/168/6 165/171/6
f 121/127/6 165/171/6 122/128/6
f 164/170/6 121/127/6 166/172/6
f 164/170/6 166/172/6 167/173/6
f 167/173/6 166/172/6 168/174/6
f 168/174/6 166/172/6 169/175/6
f 168/174/6 169/175/6 170/176/6
f 168/174/6 170/176/6 171/177/6
f 31/178/7 3/3/7 79/179/7
f 3/3/7 31/178/7 1/1/7
f 6/180/8 78/181/8 5/182/8
f 78/181/8 6/180/8 35/183/8
f 35/183/9 80/184/9 78/181/9
f 80/184/9 35/183/9 45/185/9
f 45/185/10 82/186/10 80/184/10
f 82/186/10 45/185/10 47/187/10
f 47/187/11 85/188/11 82/186/11
f 85/188/11 47/187/11 48/189/11
f 48/189/12 87/190/12 85/188/12
f 87/190/12 48/189/12 46/191/12
f 46/191/13 88/192/13 87/190/13
f 88/192/13 46/191/13 32/193/13
f 32/194/14 60/195/14 88/196/14
f 60/195/14 32/194/14 33/197/14
f 33/197/15 59/198/15 60/195/15
f 59/198/15 33/197/15 36/199/15
f 36/199/16 58/200/16 59/198/16
f 58/200/16 36/199/16 37/201/16
f 37/201/17 57/202/17 58/200/17
f 57/202/17 37/201/17 38/203/17
f 38/203/18 55/204/18 57/202/18
f 55/204/18 38/203/18 39/205/18
f 39/205/19 53/206/19 55/204/19
f 53/206/19 39/205/19 40/207/19
f 40/207/20 54/208/20 53/206/20
f 54/208/20 40/207/20 41/209/20
f 41/210/21 52/211/21 54/212/21
f 52/211/21 41/210/21 42/213/21
f 42/213/22 56/214/22 52/211/22
f 56/214/22 42/213/22 43/215/22
f 43/215/23 61/216/23 56/214/23
f 61/216/23 43/215/23 44/217/23
f 172/218/24 64/219/24 34/220/24
f 44/217/24 64/219/24 61/216/24
f 64/219/24 44/217/24 34/220/24
f 173/221/25 174/222/25 175/223/25
f 174/222/26 173/221/26 176/224/26
f 174/222/25 176/224/25 177/225/25
f 177/225/26 176/224/26 178/226/26
f 178/226/25 176/224/25 179/227/25
f 178/226/26 179/227/26 180/228/26
f 180/228/25 179/227/25 181/229/25
f 181/229/25 179/227/25 182/230/25
f 182/230/25 179/227/25 183/231/25
f 182/230/25 183/231/25 184/232/25
f 184/232/25 183/231/25 185/233/25
f 185/233/25 183/231/25 186/234/25
f 185/233/25 186/234/25 187/235/25
f 185/233/25 187/235/25 188/236/25
f 19/237/25 172/238/25 34/239/25
f 172/238/27 19/237/27 189/240/27
f 189/240/25 19/237/25 190/241/25
f 189/240/26 190/241/26 191/242/26
f 192/243/25 193/244/25 194/245/25
f 193/244/27 192/243/27 195/246/27
f 193/244/25 195/246/25 196/247/25
f 196/247/26 195/246/26 197/248/26
f 196/247/26 197/248/26 198/249/26
f 196/247/25 198/249/25 199/250/25
f 196/247/26 199/250/26 185/233/26
f 196/247/25 185/233/25 200/251/25
f 200/251/25 185/233/25 188/236/25
f 200/251/26 188/236/26 190/241/26
f 200/251/25 190/241/25 201/252/25
f 201/252/25 190/241/25 19/237/25
f 202/253/27 203/254/27 204/255/27
f 203/254/25 202/253/25 205/256/25
f 205/256/25 202/253/25 206/257/25
f 205/256/25 206/257/25 207/258/25
f 207/258/26 206/257/26 208/259/26
f 207/258/26 208/259/26 209/260/26
f 209/260/25 208/259/25 210/261/25
f 209/260/25 210/261/25 211/262/25
f 209/260/25 211/262/25 212/263/25
f 212/263/26 211/262/26 213/264/26
f 212/263/25 213/264/25 214/265/25
f 214/265/26 213/264/26 184/232/26
f 184/232/26 213/264/26 182/230/26
f 215/266/28 216/267/28 217/268/28
f 218/269/29 219/270/29 220/271/29
f 219/270/29 218/269/29 221/272/29
f 219/270/30 221/272/30 222/273/30
f 222/273/29 221/272/29 223/274/29
f 223/274/30 221/272/30 224/275/30
f 223/274/29 224/275/29 225/276/29
f 225/276/29 224/275/29 226/277/29
f 226/277/30 224/275/30 227/278/30
f 226/277/29 227/278/29 228/279/29
f 228/279/29 227/278/29 215/266/29
f 215/266/29 227/278/29 229/280/29
f 215/266/28 229/280/28 230/281/28
f 215/266/29 230/281/29 231/282/29
f 19/283/29 232/284/29 201/285/29
f 232/284/30 19/283/30 233/286/30
f 233/286/31 19/283/31 234/287/31
f 233/286/30 234/287/30 235/288/30
f 236/289/29 237/290/29 238/291/29
f 237/290/28 236/289/28 239/292/28
f 237/290/29 239/292/29 240/293/29
f 240/293/29 239/292/29 241/294/29
f 240/293/30 241/294/30 216/267/30
f 240/293/29 216/267/29 215/266/29
f 240/293/29 215/266/29 242/295/29
f 242/295/29 215/266/29 231/282/29
f 242/295/30 231/282/30 234/287/30
f 242/295/30 234/287/30 21/296/30
f 21/296/29 234/287/29 19/283/29
f 243/297/29 244/298/29 245/299/29
f 244/298/30 243/297/30 246/300/30
f 246/300/29 243/297/29 247/301/29
f 246/300/30 247/301/30 248/302/30
f 248/302/30 247/301/30 249/303/30
f 248/302/29 249/303/29 250/304/29
f 250/304/30 249/303/30 251/305/30
f 250/304/29 251/305/29 252/306/29
f 250/304/29 252/306/29 253/307/29
f 253/307/30 252/306/30 228/279/30
f 228/279/30 252/306/30 226/277/30
f 228/279/28 254/308/28 253/307/28
f 252/306/28 251/305/28 255/309/28
f 226/277/28 256/310/28 225/276/28
f 21/311/32 68/312/32 242/313/32
f 68/312/32 21/311/32 20/314/32
f 68/312/32 20/314/32 66/315/32
f 22/316/33 66/315/33 20/314/33
f 66/315/33 22/316/33 70/317/33
f 24/318/34 70/317/34 22/316/34
f 70/317/35 24/318/35 71/319/35
f 23/320/36 71/319/36 24/318/36
f 71/319/36 23/320/36 63/321/36
f 23/320/37 62/322/37 63/321/37
f 62/322/37 23/320/37 17/323/37
f 17/324/38 92/325/38 62/326/38
f 92/325/38 17/324/38 15/327/38
f 15/327/39 91/328/39 92/325/39
f 91/328/39 15/327/39 14/329/39
f 14/329/40 90/330/40 91/328/40
f 90/330/40 14/329/40 11/331/40
f 11/331/41 99/332/41 90/330/41
f 99/332/41 11/331/41 13/333/41
f 13/334/42 96/335/42 99/336/42
f 96/335/42 13/334/42 12/337/42
f 12/337/43 94/338/43 96/335/43
f 94/338/43 12/337/43 16/339/43
f 18/340/44 94/338/44 16/339/44
f 94/338/44 18/340/44 95/341/44
f 25/342/45 95/341/45 18/340/45
f 95/341/45 25/342/45 93/343/45
f 26/344/46 98/345/46 97/346/46
f 98/345/46 26/344/46 27/347/46
f 27/347/47 100/348/47 98/345/47
f 100/348/47 27/347/47 28/349/47
f 28/349/48 101/350/48 100/348/48
f 101/350/48 28/349/48 30/351/48
f 30/351/49 89/352/49 101/350/49
f 89/352/49 30/351/49 29/353/49
f 7/354/50 89/355/50 29/356/50
f 89/355/50 7/354/50 86/357/50
f 7/354/51 84/358/51 86/357/51
f 84/358/51 7/354/51 9/359/51
f 9/359/52 83/360/52 84/358/52
f 83/360/52 9/359/52 8/361/52
f 8/361/53 81/362/53 83/360/53
f 81/362/53 8/361/53 10/363/53
f 10/363/54 79/179/54 81/362/54
f 79/179/54 10/363/54 31/178/54
f 242/313/55 67/364/55 240/365/55
f 67/364/55 242/313/55 68/312/55
f 240/365/56 69/366/56 237/367/56
f 69/366/56 240/365/56 67/364/56
f 238/368/57 69/366/57 72/369/57
f 69/366/57 238/368/57 237/367/57
f 236/370/58 72/371/58 73/372/58
f 72/371/58 236/370/58 238/373/58
f 73/372/59 239/374/59 236/370/59
f 239/374/59 73/372/59 76/375/59
f 76/375/60 241/376/60 239/374/60
f 241/376/60 76/375/60 77/377/60
f 77/377/61 216/378/61 241/376/61
f 216/378/61 77/377/61 105/379/61
f 105/379/62 217/380/62 216/378/62
f 217/380/62 105/379/62 106/381/62
f 106/381/63 215/382/63 217/380/63
f 215/382/63 106/381/63 108/383/63
f 228/384/64 108/385/64 109/386/64
f 108/385/64 228/384/64 215/387/64
f 228/384/65 112/388/65 254/389/65
f 112/388/65 228/384/65 109/386/65
f 254/389/66 113/390/66 253/391/66
f 113/390/66 254/389/66 112/388/66
f 253/391/67 115/392/67 250/393/67
f 115/392/67 253/391/67 113/390/67
f 250/393/68 161/394/68 248/395/68
f 161/394/68 250/393/68 115/392/68
f 248/395/69 163/396/69 246/397/69
f 163/396/69 248/395/69 161/394/69
f 244/398/70 163/396/70 164/399/70
f 163/396/70 244/398/70 246/397/70
f 245/400/71 164/401/71 167/402/71
f 164/401/71 245/400/71 244/403/71
f 167/402/72 243/404/72 245/400/72
f 243/404/72 167/402/72 168/405/72
f 168/405/73 247/406/73 243/404/73
f 247/406/73 168/405/73 171/407/73
f 171/407/74 249/408/74 247/406/74
f 249/408/74 171/407/74 170/409/74
f 170/410/75 251/411/75 249/412/75
f 251/411/75 170/410/75 169/413/75
f 169/413/76 255/414/76 251/411/76
f 255/414/76 169/413/76 166/415/76
f 166/415/77 252/416/77 255/414/77
f 252/416/77 166/415/77 121/417/77
f 226/418/78 121/419/78 123/420/78
f 121/419/78 226/418/78 252/421/78
f 256/422/79 123/423/79 149/424/79
f 123/423/79 256/422/79 226/425/79
f 225/426/80 149/424/80 150/427/80
f 149/424/80 225/426/80 256/422/80
f 223/428/81 150/427/81 151/429/81
f 150/427/81 223/428/81 225/426/81
f 222/430/82 151/429/82 152/431/82
f 151/429/82 222/430/82 223/428/82
f 219/432/83 152/431/83 154/433/83
f 152/431/83 219/432/83 222/430/83
f 220/434/84 154/433/84 158/435/84
f 154/433/84 220/434/84 219/432/84
f 158/436/85 218/437/85 220/438/85
f 218/437/85 158/436/85 160/439/85
f 160/440/86 221/441/86 218/442/86
f 221/441/86 160/440/86 159/443/86
f 159/443/87 224/444/87 221/441/87
f 224/444/87 159/443/87 157/445/87
f 227/446/88 157/445/88 156/447/88
f 157/445/88 227/446/88 224/444/88
f 229/448/89 156/447/89 155/449/89
f 156/447/89 229/448/89 227/446/89
f 230/450/90 155/449/90 153/451/90
f 155/449/90 230/450/90 229/448/90
f 231/452/91 153/451/91 135/453/91
f 153/451/91 231/452/91 230/450/91
f 235/454/92 137/455/92 138/456/92
f 137/455/92 235/454/92 234/457/92
f 233/458/93 138/456/93 141/459/93
f 138/456/93 233/458/93 235/454/93
f 232/460/94 141/461/94 143/462/94
f 141/461/94 232/460/94 233/463/94
f 201/464/95 143/462/95 144/465/95
f 143/462/95 201/464/95 232/460/95
f 196/466/96 144/465/96 146/467/96
f 144/465/96 196/466/96 200/468/96
f 148/469/97 196/466/97 146/467/97
f 196/466/97 148/469/97 193/470/97
f 147/471/98 193/472/98 148/473/98
f 193/472/98 147/471/98 194/474/98
f 192/475/99 147/471/99 145/476/99
f 147/471/99 192/475/99 194/474/99
f 195/477/100 145/476/100 142/478/100
f 145/476/100 195/477/100 192/475/100
f 197/479/101 142/478/101 140/480/101
f 142/478/101 197/479/101 195/477/101
f 198/481/102 140/480/102 139/482/102
f 140/480/102 198/481/102 197/479/102
f 199/483/103 139/482/103 134/484/103
f 139/482/103 199/483/103 198/481/103
f 185/485/104 134/484/104 136/486/104
f 134/484/104 185/485/104 199/483/104
f 125/487/105 185/485/105 136/486/105
f 185/485/105 125/487/105 184/488/105
f 214/489/106 125/490/106 127/491/106
f 125/490/106 214/489/106 184/492/106
f 212/493/107 127/491/107 129/494/107
f 127/491/107 212/493/107 214/489/107
f 130/495/108 212/493/108 129/494/108
f 212/493/108 130/495/108 209/496/108
f 131/497/109 209/496/109 130/495/109
f 209/496/109 131/497/109 207/498/109
f 132/499/110 207/498/110 131/497/110
f 207/498/110 132/499/110 205/500/110
f 133/501/111 205/500/111 132/499/111
f 205/500/111 133/501/111 203/502/111
f 204/503/112 133/504/112 128/505/112
f 133/504/112 204/503/112 203/506/112
f 202/507/113 128/505/113 126/508/113
f 128/505/113 202/507/113 204/503/113
f 206/509/114 126/508/114 124/510/114
f 126/508/114 206/509/114 202/507/114
f 208/511/115 124/510/115 120/512/115
f 124/510/115 208/511/115 206/509/115
f 210/513/116 120/512/116 122/514/116
f 120/512/116 210/513/116 208/511/116
f 211/515/117 122/516/117 165/517/117
f 122/516/117 211/515/117 210/518/117
f 213/519/118 165/517/118 162/520/118
f 165/517/118 213/519/118 211/515/118
f 182/521/119 162/522/119 116/523/119
f 162/522/119 182/521/119 213/524/119
f 117/525/120 182/526/120 116/527/120
f 182/526/120 117/525/120 181/528/120
f 119/529/121 181/528/121 117/525/121
f 181/528/121 119/529/121 180/530/121
f 118/531/122 180/530/122 119/529/122
f 180/530/122 118/531/122 178/532/122
f 114/533/123 178/534/123 118/535/123
f 178/534/123 114/533/123 177/536/123
f 111/537/124 177/536/124 114/533/124
f 177/536/125 111/537/125 174/538/125
f 110/539/126 174/538/126 111/537/126
f 174/538/126 110/539/126 175/540/126
f 173/541/127 110/539/127 107/542/127
f 110/539/127 173/541/127 175/540/127
f 176/543/128 107/544/128 104/545/128
f 107/544/128 176/543/128 173/546/128
f 179/547/129 104/545/129 103/548/129
f 104/545/130 179/547/130 176/543/130
f 183/549/131 103/548/131 102/550/131
f 103/548/131 183/549/131 179/547/131
f 186/551/132 102/550/132 51/552/132
f 102/550/132 186/551/132 183/549/132
f 187/553/133 51/552/133 50/554/133
f 51/552/133 187/553/133 186/551/133
f 188/555/134 50/554/134 49/556/134
f 50/554/134 188/555/134 187/553/134
f 190/557/135 49/558/135 75/559/135
f 49/558/135 190/557/135 188/560/135
f 74/561/136 190/557/136 75/559/136
f 190/557/136 74/561/136 191/562/136
f 65/563/137 191/562/137 74/561/137
f 191/562/137 65/563/137 189/564/137
f 135/565/138 234/566/138 231/567/138
f 234/566/138 135/565/138 137/568/138
f 64/219/139 189/564/139 65/563/139
f 189/564/139 64/219/139 172/218/139
f 26/569/140 93/343/140 25/342/140
f 93/343/140 26/569/140 97/570/140
f 201/464/95 144/465/95 200/468/95
